<svg width="154" height="45" viewBox="0 0 154 45" fill="none" xmlns="http://www.w3.org/2000/svg">
<path d="M153.146 39.0557C153.146 41.3872 151.189 43.2759 148.768 43.2759H5.5144C3.09503 43.2759 1.13123 41.3872 1.13123 39.0557V5.40078C1.13123 3.07029 3.09503 1.17505 5.5144 1.17505H148.767C151.189 1.17505 153.145 3.07029 153.145 5.40078L153.146 39.0557Z" fill="black"/>
<path d="M148.306 1.22589C150.943 1.22589 153.088 3.28633 153.088 5.81847V38.6323C153.088 41.1645 150.943 43.2249 148.306 43.2249H5.97065C3.33459 43.2249 1.18959 41.1645 1.18959 38.6323V5.81847C1.18959 3.28633 3.33459 1.22589 5.97065 1.22589H148.306ZM148.306 0.349487H5.97065C2.84069 0.349487 0.277222 2.8119 0.277222 5.81847V38.6323C0.277222 41.6389 2.84069 44.1013 5.97065 44.1013H148.306C151.436 44.1013 154 41.6389 154 38.6323V5.81847C154 2.8119 151.436 0.349487 148.306 0.349487Z" fill="#A6A6A6"/>
<path d="M34.5836 21.9892C34.5506 18.4639 37.5886 16.7488 37.7275 16.669C36.0069 14.2593 33.3401 13.9301 32.403 13.9038C30.1632 13.6774 27.9906 15.1912 26.8496 15.1912C25.6859 15.1912 23.9289 13.9257 22.0353 13.9629C19.5985 13.999 17.3188 15.3542 16.0685 17.4587C13.4883 21.7496 15.4127 28.0554 17.8847 31.5238C19.1214 33.2225 20.5663 35.1191 22.4577 35.0524C24.3081 34.9791 24.9993 33.9192 27.2322 33.9192C29.4447 33.9192 30.0937 35.0524 32.0227 35.0097C34.0085 34.9791 35.2588 33.3034 36.4522 31.5894C37.8812 29.6425 38.4551 27.7251 38.4779 27.6266C38.4312 27.6113 34.6212 26.2145 34.5836 21.9892Z" fill="white"/>
<path d="M30.9398 11.6222C31.935 10.4267 32.6159 8.8002 32.4269 7.14966C30.9865 7.21091 29.1851 8.10673 28.1477 9.276C27.2299 10.3064 26.4101 11.9952 26.6219 13.5834C28.24 13.6993 29.9013 12.7991 30.9398 11.6222Z" fill="white"/>
<path d="M56.1298 11.2973C56.1298 12.5847 55.7279 13.5538 54.9251 14.2046C54.1815 14.8051 53.1248 15.1059 51.7561 15.1059C51.0774 15.1059 50.4967 15.0775 50.0105 15.0206V7.9864C50.6447 7.88796 51.328 7.83765 52.0658 7.83765C53.3696 7.83765 54.3523 8.11 55.015 8.65471C55.7575 9.27052 56.1298 10.151 56.1298 11.2973ZM54.8716 11.329C54.8716 10.4945 54.6415 9.85461 54.1815 9.40834C53.7215 8.96316 53.0497 8.74003 52.1649 8.74003C51.7891 8.74003 51.4692 8.76409 51.2038 8.81441V14.162C51.3507 14.1839 51.6195 14.1937 52.01 14.1937C52.9233 14.1937 53.6281 13.9498 54.1246 13.4619C54.621 12.9741 54.8716 12.2631 54.8716 11.329Z" fill="white"/>
<path d="M62.8014 12.4217C62.8014 13.2147 62.5657 13.8644 62.0943 14.3741C61.6001 14.898 60.9453 15.1594 60.1278 15.1594C59.3398 15.1594 58.7124 14.909 58.2444 14.4058C57.7775 13.9038 57.5441 13.2705 57.5441 12.507C57.5441 11.7085 57.7843 11.0533 58.2671 10.5447C58.7499 10.0361 59.399 9.78125 60.2166 9.78125C61.0045 9.78125 61.6376 10.0317 62.117 10.5338C62.5725 11.0216 62.8014 11.6516 62.8014 12.4217ZM61.5636 12.4589C61.5636 11.9831 61.4566 11.5751 61.2437 11.2349C60.9932 10.8236 60.6367 10.618 60.1733 10.618C59.6939 10.618 59.3295 10.8236 59.079 11.2349C58.8649 11.5751 58.759 11.9896 58.759 12.4796C58.759 12.9554 58.8661 13.3634 59.079 13.7036C59.3375 14.1149 59.6973 14.3205 60.1619 14.3205C60.6174 14.3205 60.9749 14.1116 61.2323 13.6927C61.4532 13.3459 61.5636 12.9347 61.5636 12.4589Z" fill="white"/>
<path d="M71.7469 9.88623L70.0673 15.0424H68.9742L68.2785 12.8034C68.102 12.2445 67.9585 11.6888 67.8469 11.1375H67.8253C67.7216 11.7041 67.5782 12.2587 67.3937 12.8034L66.6547 15.0424H65.549L63.9697 9.88623H65.196L65.8029 12.3374C65.9498 12.9171 66.0705 13.4695 66.1673 13.9923H66.189C66.2778 13.5614 66.4247 13.0123 66.6319 12.3484L67.3937 9.88732H68.3661L69.096 12.2959C69.2725 12.8832 69.416 13.4487 69.5264 13.9934H69.5595C69.6403 13.4629 69.7622 12.8975 69.9239 12.2959L70.5752 9.88732H71.7469V9.88623Z" fill="white"/>
<path d="M77.9334 15.0425H76.74V12.0893C76.74 11.1792 76.3802 10.7242 75.6583 10.7242C75.3041 10.7242 75.0183 10.8489 74.7963 11.0994C74.5765 11.3499 74.4649 11.6452 74.4649 11.9832V15.0414H73.2716V11.3597C73.2716 10.9069 73.2568 10.4158 73.2283 9.88417H74.2771L74.3329 10.6903H74.3659C74.5048 10.4398 74.712 10.2331 74.9842 10.0679C75.3076 9.87542 75.6697 9.77808 76.0659 9.77808C76.5669 9.77808 76.9837 9.9334 77.3151 10.2451C77.7273 10.6269 77.9334 11.1967 77.9334 11.9536V15.0425V15.0425Z" fill="white"/>
<path d="M81.2242 15.0425H80.032V7.52051H81.2242V15.0425Z" fill="white"/>
<path d="M88.2499 12.4217C88.2499 13.2147 88.0142 13.8644 87.5428 14.3741C87.0486 14.898 86.3927 15.1594 85.5763 15.1594C84.7872 15.1594 84.1598 14.909 83.6929 14.4058C83.226 13.9038 82.9926 13.2705 82.9926 12.507C82.9926 11.7085 83.2329 11.0533 83.7157 10.5447C84.1985 10.0361 84.8475 9.78125 85.664 9.78125C86.4531 9.78125 87.0851 10.0317 87.5656 10.5338C88.0211 11.0216 88.2499 11.6516 88.2499 12.4217ZM87.011 12.4589C87.011 11.9831 86.904 11.5751 86.6911 11.2349C86.4417 10.8236 86.0841 10.618 85.6218 10.618C85.1413 10.618 84.7769 10.8236 84.5276 11.2349C84.3135 11.5751 84.2076 11.9896 84.2076 12.4796C84.2076 12.9554 84.3146 13.3634 84.5276 13.7036C84.786 14.1149 85.1459 14.3205 85.6105 14.3205C86.0659 14.3205 86.4223 14.1116 86.6797 13.6927C86.9017 13.3459 87.011 12.9347 87.011 12.4589Z" fill="white"/>
<path d="M94.0253 15.0424H92.9538L92.865 14.4485H92.832C92.4653 14.9221 91.9426 15.1594 91.264 15.1594C90.7573 15.1594 90.3474 15.003 90.0388 14.6924C89.7587 14.4102 89.6186 14.0591 89.6186 13.6423C89.6186 13.0123 89.8919 12.5321 90.4419 12.1996C90.9907 11.8671 91.7627 11.7041 92.7568 11.7118V11.6155C92.7568 10.9363 92.3856 10.5972 91.642 10.5972C91.1125 10.5972 90.6457 10.7252 90.2426 10.979L90 10.2264C90.4988 9.93001 91.1148 9.78125 91.8413 9.78125C93.2442 9.78125 93.9479 10.4922 93.9479 11.9142V13.813C93.9479 14.3282 93.9741 14.7383 94.0253 15.0424ZM92.7864 13.2705V12.4753C91.4701 12.4534 90.8119 12.8001 90.8119 13.5144C90.8119 13.7834 90.8871 13.9847 91.0408 14.1192C91.1945 14.2538 91.3904 14.3205 91.6238 14.3205C91.8857 14.3205 92.1305 14.2407 92.3537 14.0821C92.578 13.9224 92.7158 13.72 92.7671 13.4717C92.7796 13.4159 92.7864 13.3481 92.7864 13.2705Z" fill="white"/>
<path d="M100.806 15.0425H99.7472L99.6914 14.2145H99.6584C99.3202 14.8446 98.744 15.1596 97.9344 15.1596C97.2877 15.1596 96.7491 14.9157 96.3221 14.4278C95.8951 13.94 95.6821 13.3067 95.6821 12.529C95.6821 11.6944 95.9133 11.0185 96.3779 10.5022C96.8276 10.0209 97.3788 9.78029 98.0346 9.78029C98.7554 9.78029 99.2599 10.0133 99.5468 10.4803H99.5696V7.52051H100.764V13.6534C100.764 14.1555 100.778 14.6181 100.806 15.0425ZM99.5696 12.8681V12.0084C99.5696 11.8596 99.5582 11.7393 99.5366 11.6474C99.4694 11.3718 99.3248 11.1399 99.105 10.9528C98.883 10.7658 98.6154 10.6717 98.3068 10.6717C97.8616 10.6717 97.5131 10.8413 97.2569 11.1814C97.003 11.5216 96.8743 11.9558 96.8743 12.4863C96.8743 12.996 96.9962 13.4095 97.241 13.7278C97.4995 14.0669 97.8479 14.2364 98.284 14.2364C98.6757 14.2364 98.9889 14.0953 99.2269 13.812C99.4569 13.5506 99.5696 13.2356 99.5696 12.8681Z" fill="white"/>
<path d="M111.012 12.4217C111.012 13.2147 110.776 13.8644 110.305 14.3741C109.811 14.898 109.157 15.1594 108.339 15.1594C107.552 15.1594 106.924 14.909 106.455 14.4058C105.988 13.9038 105.755 13.2705 105.755 12.507C105.755 11.7085 105.995 11.0533 106.478 10.5447C106.961 10.0361 107.61 9.78125 108.429 9.78125C109.215 9.78125 109.85 10.0317 110.328 10.5338C110.783 11.0216 111.012 11.6516 111.012 12.4217ZM109.776 12.4589C109.776 11.9831 109.669 11.5751 109.456 11.2349C109.204 10.8236 108.849 10.618 108.384 10.618C107.906 10.618 107.541 10.8236 107.29 11.2349C107.076 11.5751 106.97 11.9896 106.97 12.4796C106.97 12.9554 107.077 13.3634 107.29 13.7036C107.548 14.1149 107.908 14.3205 108.373 14.3205C108.828 14.3205 109.187 14.1116 109.444 13.6927C109.664 13.3459 109.776 12.9347 109.776 12.4589Z" fill="white"/>
<path d="M117.429 15.0425H116.237V12.0893C116.237 11.1792 115.877 10.7242 115.154 10.7242C114.8 10.7242 114.514 10.8489 114.293 11.0994C114.072 11.3499 113.961 11.6452 113.961 11.9832V15.0414H112.767V11.3597C112.767 10.9069 112.753 10.4158 112.725 9.88417H113.772L113.828 10.6903H113.861C114.001 10.4398 114.209 10.2331 114.48 10.0679C114.804 9.87542 115.165 9.77808 115.562 9.77808C116.062 9.77808 116.479 9.9334 116.81 10.2451C117.224 10.6269 117.429 11.1967 117.429 11.9536V15.0425V15.0425Z" fill="white"/>
<path d="M125.46 10.7448H124.146V13.2496C124.146 13.8862 124.379 14.2045 124.842 14.2045C125.056 14.2045 125.233 14.187 125.373 14.1509L125.404 15.0204C125.168 15.1058 124.859 15.1484 124.477 15.1484C124.006 15.1484 123.639 15.0106 123.374 14.735C123.107 14.4593 122.975 13.9956 122.975 13.3447V10.7448H122.191V9.88617H122.975V8.94113L124.145 8.60205V9.88507H125.459V10.7448H125.46Z" fill="white"/>
<path d="M131.777 15.0425H130.583V12.1112C130.583 11.1869 130.223 10.7242 129.502 10.7242C128.949 10.7242 128.571 10.9922 128.364 11.5282C128.328 11.6408 128.308 11.7787 128.308 11.9405V15.0414H127.116V7.52051H128.308V10.628H128.33C128.706 10.0625 129.245 9.78029 129.943 9.78029C130.437 9.78029 130.846 9.93561 131.17 10.2473C131.575 10.6356 131.777 11.2132 131.777 11.9766V15.0425V15.0425Z" fill="white"/>
<path d="M138.294 12.2205C138.294 12.4261 138.278 12.5989 138.25 12.74H134.671C134.687 13.2498 134.857 13.6381 135.189 13.9071C135.492 14.1478 135.882 14.2681 136.361 14.2681C136.89 14.2681 137.373 14.1871 137.808 14.0242L137.995 14.8204C137.486 15.0326 136.887 15.1387 136.193 15.1387C135.362 15.1387 134.707 14.9036 134.233 14.4332C133.757 13.9629 133.522 13.3318 133.522 12.5399C133.522 11.7622 133.742 11.1147 134.184 10.5984C134.647 10.0471 135.272 9.77148 136.061 9.77148C136.833 9.77148 137.419 10.0471 137.816 10.5984C138.136 11.0359 138.294 11.5773 138.294 12.2205ZM137.155 11.9241C137.164 11.5839 137.086 11.2908 136.924 11.0436C136.717 10.7253 136.401 10.5656 135.974 10.5656C135.585 10.5656 135.267 10.7209 135.025 11.0326C134.827 11.2809 134.709 11.5773 134.671 11.9241H137.155Z" fill="white"/>
<path d="M61.362 34.8084H58.7761L57.3596 30.5328H52.4359L51.0865 34.8084H48.5689L53.447 20.2522H56.46L61.362 34.8084ZM56.9326 28.739L55.6515 24.938C55.516 24.5497 55.2621 23.6353 54.8875 22.1959H54.8419C54.6928 22.815 54.4525 23.7294 54.1223 24.938L52.864 28.739H56.9326V28.739Z" fill="white"/>
<path d="M73.907 29.4314C73.907 31.2164 73.4048 32.6274 72.4005 33.6633C71.501 34.5853 70.3839 35.0458 69.0505 35.0458C67.6112 35.0458 66.5773 34.5492 65.9476 33.5561H65.902V39.0852H63.4744V27.7677C63.4744 26.6455 63.4436 25.4937 63.3844 24.3124H65.5194L65.6549 25.9761H65.7005C66.5101 24.7226 67.7387 24.0969 69.3876 24.0969C70.6765 24.0969 71.7526 24.5858 72.6135 25.5648C73.4766 26.5448 73.907 27.8333 73.907 29.4314ZM71.4338 29.5167C71.4338 28.4951 71.1947 27.6529 70.7141 26.99C70.1892 26.2987 69.4843 25.9531 68.6007 25.9531C68.0018 25.9531 67.4575 26.1456 66.9713 26.5251C66.4839 26.908 66.1651 27.4078 66.0159 28.0269C65.9407 28.3157 65.9032 28.552 65.9032 28.7379V30.488C65.9032 31.2514 66.1469 31.8957 66.6342 32.4218C67.1216 32.9479 67.7547 33.2104 68.5335 33.2104C69.4479 33.2104 70.1596 32.8714 70.6686 32.1954C71.1787 31.5183 71.4338 30.6258 71.4338 29.5167Z" fill="white"/>
<path d="M86.4747 29.4314C86.4747 31.2164 85.9725 32.6274 84.967 33.6633C84.0686 34.5853 82.9516 35.0458 81.6182 35.0458C80.1789 35.0458 79.1449 34.5492 78.5164 33.5561H78.4708V39.0852H76.0431V27.7677C76.0431 26.6455 76.0124 25.4937 75.9532 24.3124H78.0882L78.2237 25.9761H78.2693C79.0777 24.7226 80.3064 24.0969 81.9563 24.0969C83.2442 24.0969 84.3203 24.5858 85.1834 25.5648C86.0431 26.5448 86.4747 27.8333 86.4747 29.4314ZM84.0014 29.5167C84.0014 28.4951 83.7612 27.6529 83.2806 26.99C82.7557 26.2987 82.0531 25.9531 81.1684 25.9531C80.5683 25.9531 80.0251 26.1456 79.5378 26.5251C79.0504 26.908 78.7327 27.4078 78.5836 28.0269C78.5095 28.3157 78.4708 28.552 78.4708 28.7379V30.488C78.4708 31.2514 78.7145 31.8957 79.1996 32.4218C79.6869 32.9468 80.3201 33.2104 81.1012 33.2104C82.0156 33.2104 82.7272 32.8714 83.2362 32.1954C83.7464 31.5183 84.0014 30.6258 84.0014 29.5167Z" fill="white"/>
<path d="M100.526 30.7265C100.526 31.9647 100.079 32.9721 99.1801 33.7498C98.1929 34.5997 96.8185 35.0241 95.0524 35.0241C93.4218 35.0241 92.1146 34.7222 91.1251 34.1173L91.6876 32.1736C92.7534 32.7927 93.9228 33.1034 95.197 33.1034C96.1114 33.1034 96.823 32.9043 97.3343 32.5083C97.8433 32.1124 98.0972 31.5808 98.0972 30.918C98.0972 30.3273 97.8877 29.8296 97.4675 29.426C97.0496 29.0224 96.3516 28.6472 95.3769 28.3005C92.7238 27.35 91.3984 25.9576 91.3984 24.1266C91.3984 22.93 91.8629 21.9488 92.7932 21.1854C93.7201 20.4208 94.9567 20.0391 96.5031 20.0391C97.882 20.0391 99.0275 20.2699 99.9419 20.7303L99.335 22.6314C98.481 22.1851 97.5154 21.962 96.4348 21.962C95.5807 21.962 94.9135 22.1643 94.4352 22.5668C94.031 22.9267 93.8283 23.3653 93.8283 23.8848C93.8283 24.4602 94.0595 24.936 94.524 25.3101C94.9283 25.6557 95.6627 26.0298 96.7285 26.4334C98.0323 26.9376 98.99 27.5272 99.606 28.2032C100.22 28.8769 100.526 29.7202 100.526 30.7265Z" fill="white"/>
<path d="M108.553 26.0624H105.877V31.1584C105.877 32.4545 106.348 33.102 107.293 33.102C107.727 33.102 108.087 33.0659 108.372 32.9937L108.439 34.7646C107.961 34.9363 107.331 35.0227 106.551 35.0227C105.592 35.0227 104.843 34.7416 104.302 34.1805C103.763 33.6183 103.492 32.6755 103.492 31.3509V26.0602H101.898V24.3101H103.492V22.3883L105.877 21.697V24.3101H108.553V26.0624Z" fill="white"/>
<path d="M120.626 29.4739C120.626 31.0873 120.146 32.4118 119.187 33.4477C118.181 34.5141 116.847 35.0457 115.183 35.0457C113.58 35.0457 112.303 34.5349 111.352 33.5133C110.4 32.4917 109.924 31.2021 109.924 29.6478C109.924 28.0213 110.413 26.6891 111.396 25.6533C112.376 24.6164 113.7 24.0979 115.363 24.0979C116.966 24.0979 118.257 24.6087 119.23 25.6314C120.162 26.6235 120.626 27.9043 120.626 29.4739ZM118.107 29.5494C118.107 28.5814 117.892 27.7512 117.456 27.0588C116.947 26.221 116.219 25.8031 115.277 25.8031C114.301 25.8031 113.559 26.2221 113.05 27.0588C112.614 27.7523 112.399 28.5956 112.399 29.5931C112.399 30.5611 112.614 31.3913 113.05 32.0826C113.575 32.9205 114.309 33.3383 115.255 33.3383C116.182 33.3383 116.909 32.9117 117.434 32.0607C117.882 31.3552 118.107 30.5163 118.107 29.5494Z" fill="white"/>
<path d="M128.517 26.3633C128.277 26.3206 128.021 26.2987 127.752 26.2987C126.898 26.2987 126.238 26.6083 125.773 27.2285C125.369 27.7754 125.166 28.4666 125.166 29.3012V34.8085H122.74L122.762 27.6179C122.762 26.4081 122.732 25.3067 122.671 24.3135H124.786L124.875 26.3217H124.942C125.198 25.6315 125.602 25.0759 126.156 24.6591C126.696 24.284 127.281 24.0969 127.91 24.0969C128.135 24.0969 128.337 24.1122 128.517 24.1396V26.3633Z" fill="white"/>
<path d="M139.375 29.064C139.375 29.4818 139.346 29.834 139.286 30.1217H132.003C132.031 31.1586 132.383 31.9516 133.059 32.4985C133.673 32.9875 134.467 33.2325 135.442 33.2325C136.52 33.2325 137.504 33.0673 138.389 32.7359L138.769 34.3547C137.735 34.7878 136.514 35.0033 135.106 35.0033C133.411 35.0033 132.081 34.5242 131.113 33.5672C130.148 32.6101 129.664 31.3249 129.664 29.7126C129.664 28.1299 130.114 26.8119 131.014 25.7607C131.957 24.6385 133.231 24.0774 134.835 24.0774C136.409 24.0774 137.602 24.6385 138.411 25.7607C139.052 26.6522 139.375 27.7547 139.375 29.064ZM137.06 28.4591C137.076 27.7679 136.917 27.1706 136.588 26.6664C136.168 26.0178 135.522 25.694 134.654 25.694C133.86 25.694 133.214 26.0101 132.721 26.6445C132.317 27.1488 132.077 27.7536 132.003 28.458H137.06V28.4591Z" fill="white"/>
</svg>
