<svg width="135" height="46" viewBox="0 0 135 46" fill="none" xmlns="http://www.w3.org/2000/svg">
<path d="M106.067 36.9327V34.9574C106.067 34.4107 105.865 33.9417 105.462 33.5504C105.066 33.159 104.593 32.9634 104.046 32.9634H102.024C100.834 32.9634 100.166 33.628 100.021 34.9574H98C98.3086 32.2987 99.6499 30.9694 102.024 30.9694H106.067C107.169 30.9694 108.114 31.3638 108.901 32.1527C109.694 32.9354 110.091 33.8703 110.091 34.9574V44.8901H106.067V42.8961C105.91 44.2254 105.236 44.8901 104.046 44.8901H102.024C100.922 44.8901 99.9742 44.5019 99.1808 43.7254C98.3936 42.9427 98 42.0078 98 40.9207V40.9021C98 39.815 98.3967 38.8832 99.1902 38.1068C99.9837 37.3241 100.928 36.9327 102.024 36.9327H106.067ZM106.067 38.9267H104.046C103.491 38.9267 103.016 39.1224 102.619 39.5137C102.222 39.8989 102.024 40.3617 102.024 40.9021V40.9207C102.024 41.4549 102.219 41.9177 102.61 42.3091C103.006 42.7004 103.485 42.8961 104.046 42.8961C104.606 42.8961 105.081 42.7004 105.472 42.3091C105.869 41.9177 106.067 41.4549 106.067 40.9207V38.9267Z" fill="#D7D7D7"/>
<path d="M118.13 44.8901H114.106V30.9694H118.13V34.9574C118.287 33.628 118.703 32.631 119.377 31.9664C120.05 31.3017 120.982 30.9694 122.173 30.9694H124.175V34.9574H120.151C119.597 34.9574 119.122 35.153 118.725 35.5444C118.328 35.9295 118.13 36.3923 118.13 36.9327V44.8901Z" fill="#D7D7D7"/>
<path d="M128.218 27H132.242V30.9694H134.264V32.9634H132.242V40.9207C132.242 41.5605 132.456 42.0513 132.885 42.3929C133.313 42.7284 133.71 42.8961 134.075 42.8961H134.264V44.8901H132.242C131.134 44.8901 130.186 44.5019 129.399 43.7254C128.612 42.9427 128.218 42.0078 128.218 40.9207V32.9634H126.197V30.9694H128.218V27Z" fill="#D7D7D7"/>
<path d="M59.3885 10.0327L56.5713 45.8129H93.3185L90.0341 10.0327H59.3885Z" fill="white"/>
<path d="M65.1413 23.0876H69.219L73.7044 36.9715C73.931 37.6392 74.1462 38.2954 74.3501 38.9401C74.5539 39.5617 74.7465 40.1949 74.9277 40.8396H74.9957C75.1769 40.1949 75.3581 39.5732 75.5394 38.9746C75.7433 38.376 75.9698 37.7082 76.219 36.9715L80.6025 23.0876H84.6802L86.5491 44.8459H83.4229L82.5394 33.3106C82.4488 32.1824 82.3808 31.0657 82.3355 29.9605C82.2902 28.8323 82.2449 27.6926 82.1996 26.5413H82.1316C81.8145 27.6695 81.486 28.7977 81.1462 29.9259C80.829 31.0541 80.4892 32.1824 80.1268 33.3106L76.3549 44.8459H73.5005L69.7287 33.276C69.3436 32.1018 68.9924 30.9851 68.6753 29.9259C68.3581 28.8438 68.041 27.7156 67.7238 26.5413H67.6559C67.6106 27.6695 67.5426 28.7977 67.452 29.9259C67.384 31.0541 67.3047 32.1824 67.2141 33.3106L66.3986 44.8459H63.3403L65.1413 23.0876Z" fill="#039D55"/>
<path d="M8.34187 41.629V37.4254C8.34187 36.8558 8.13349 36.368 7.71672 35.9621C7.30646 35.5496 6.81806 35.3433 6.25152 35.3433C5.67846 35.3433 5.18681 35.5496 4.77655 35.9621C4.3663 36.368 4.16117 36.8558 4.16117 37.4254V41.629C4.16117 42.1921 4.36304 42.6799 4.76678 43.0924C5.17704 43.5049 5.67195 43.7111 6.25152 43.7111C6.83109 43.7111 7.32274 43.5049 7.72649 43.0924C8.13674 42.6799 8.34187 42.1921 8.34187 41.629ZM4.16117 35.3433C4.24582 34.6362 4.46072 34.1091 4.80586 33.7621C5.1575 33.415 5.63939 33.2415 6.25152 33.2415H8.34187C9.48147 33.2415 10.4583 33.654 11.2723 34.479C12.0928 35.2975 12.503 36.2796 12.503 37.4254V41.629C12.503 42.7617 12.0928 43.7439 11.2723 44.5754C10.4583 45.4004 9.48147 45.8129 8.34187 45.8129H4.16117C3.02157 45.8129 2.04151 45.4004 1.221 44.5754C0.407 43.7439 0 42.7617 0 41.629V34.2826C0 32.279 0.71632 30.557 2.14896 29.1165C3.58811 27.676 5.30077 26.9558 7.28693 26.9558H10.4127V29.0576H8.34187C7.18925 29.0576 6.20268 29.4701 5.38217 30.2951C4.56817 31.1201 4.16117 32.1022 4.16117 33.2415V35.3433Z" fill="white"/>
<path d="M24.9963 37.4254V35.3433C24.9963 34.7671 24.7879 34.2728 24.3712 33.8603C23.9609 33.4478 23.4725 33.2415 22.906 33.2415H20.8156C19.5848 33.2415 18.8946 33.9421 18.7448 35.3433H16.6544C16.9735 32.5409 18.3606 31.1397 20.8156 31.1397H24.9963C26.1359 31.1397 27.1127 31.5555 27.9267 32.3871C28.7472 33.2121 29.1575 34.1975 29.1575 35.3433V45.8129H24.9963V43.7111C24.8335 45.1123 24.1367 45.8129 22.906 45.8129H20.8156C19.676 45.8129 18.6959 45.4037 17.8754 44.5853C17.0614 43.7603 16.6544 42.7748 16.6544 41.629V41.6094C16.6544 40.4635 17.0647 39.4814 17.8852 38.6629C18.7057 37.8379 19.6825 37.4254 20.8156 37.4254H24.9963ZM24.9963 39.5272H22.906C22.3329 39.5272 21.8412 39.7335 21.431 40.146C21.0207 40.5519 20.8156 41.0397 20.8156 41.6094V41.629C20.8156 42.1921 21.0175 42.6799 21.4212 43.0924C21.8315 43.5049 22.3264 43.7111 22.906 43.7111C23.4855 43.7111 23.9772 43.5049 24.3809 43.0924C24.7912 42.6799 24.9963 42.1921 24.9963 41.629V39.5272Z" fill="white"/>
<path d="M45.8119 45.8129H41.6507V35.3433C41.6507 34.7671 41.4424 34.2728 41.0256 33.8603C40.6153 33.4478 40.1269 33.2415 39.5604 33.2415C38.9873 33.2415 38.4957 33.4478 38.0854 33.8603C37.6752 34.2728 37.47 34.7671 37.47 35.3433V45.8129H33.3089V31.1397H37.47V33.2415C37.5547 32.5344 37.7696 32.0073 38.1147 31.6603C38.4664 31.3132 38.9483 31.1397 39.5604 31.1397H41.6507C43.0639 31.1397 44.1058 31.6341 44.7765 32.6228C45.1021 32.1251 45.5254 31.7552 46.0463 31.5129C46.5673 31.2641 47.1859 31.1397 47.9023 31.1397H49.9731C51.1127 31.1397 52.0927 31.5522 52.9132 32.3772C53.7403 33.1957 54.1538 34.1844 54.1538 35.3433V45.8129H49.9731V35.3433C49.9731 34.7737 49.768 34.2826 49.3577 33.8701C48.9474 33.451 48.4623 33.2415 47.9023 33.2415C47.3292 33.2415 46.8376 33.4478 46.4273 33.8603C46.017 34.2728 45.8119 34.7671 45.8119 35.3433V45.8129Z" fill="white"/>
<path d="M69.8682 13.4173C70.5358 13.4173 71.077 12.8761 71.077 12.2085C71.077 11.5409 70.5358 10.9998 69.8682 10.9998C69.2006 10.9998 68.6594 11.5409 68.6594 12.2085C68.6594 12.8761 69.2006 13.4173 69.8682 13.4173Z" fill="white"/>
<path fill-rule="evenodd" clip-rule="evenodd" d="M69.8682 11.1334C69.2735 11.1334 68.7922 11.6152 68.7922 12.2085C68.7922 12.8019 69.2735 13.2837 69.8682 13.2837C70.463 13.2837 70.9443 12.8019 70.9443 12.2085C70.9443 11.6152 70.463 11.1334 69.8682 11.1334ZM68.6594 12.2085C68.6594 11.5405 69.2011 10.9998 69.8682 10.9998C70.5354 10.9998 71.077 11.5405 71.077 12.2085C71.077 12.8766 70.5354 13.4173 69.8682 13.4173C69.2011 13.4173 68.6594 12.8766 68.6594 12.2085Z" fill="#0C633A"/>
<path d="M79.055 13.4173C79.7226 13.4173 80.2638 12.8761 80.2638 12.2085C80.2638 11.5409 79.7226 10.9998 79.055 10.9998C78.3874 10.9998 77.8462 11.5409 77.8462 12.2085C77.8462 12.8761 78.3874 13.4173 79.055 13.4173Z" fill="white"/>
<path fill-rule="evenodd" clip-rule="evenodd" d="M79.055 11.1334C78.4602 11.1334 77.9789 11.6152 77.9789 12.2085C77.9789 12.8019 78.4602 13.2837 79.055 13.2837C79.6497 13.2837 80.131 12.8019 80.131 12.2085C80.131 11.6152 79.6497 11.1334 79.055 11.1334ZM77.8462 12.2085C77.8462 11.5405 78.3878 10.9998 79.055 10.9998C79.7221 10.9998 80.2638 11.5405 80.2638 12.2085C80.2638 12.8766 79.7221 13.4173 79.055 13.4173C78.3878 13.4173 77.8462 12.8766 77.8462 12.2085Z" fill="#0C633A"/>
<path fill-rule="evenodd" clip-rule="evenodd" d="M76.6837 2.27882C75.9891 1.46184 75.0635 0.936435 73.8003 0.947722C72.5365 0.959014 71.635 1.49561 70.9766 2.31409C70.3091 3.14393 69.8937 4.2636 69.6421 5.41101C69.3914 6.55425 69.3085 7.70025 69.2887 8.56332C69.2789 8.99411 69.2848 9.35269 69.2932 9.60298C69.2973 9.72809 69.3021 9.82604 69.3058 9.89232C69.3077 9.92546 69.3092 9.95067 69.3104 9.96738C69.3109 9.97574 69.3113 9.98198 69.3116 9.98602L69.3119 9.99043L69.312 9.99138L69.312 9.99154C69.312 9.99153 69.312 9.99149 69.0007 10.0122C68.6894 10.0329 68.6894 10.0327 68.6894 10.0326L68.6892 10.0305L68.6888 10.0248C68.6885 10.0199 68.688 10.0128 68.6874 10.0036C68.6861 9.98505 68.6845 9.95799 68.6825 9.92294C68.6786 9.85285 68.6736 9.75078 68.6693 9.62128C68.6606 9.36235 68.6546 8.99337 68.6647 8.55077C68.6849 7.66707 68.7698 6.48302 69.0307 5.29314C69.2908 4.10743 69.7308 2.89091 70.4783 1.96169C71.2349 1.02111 72.308 0.375791 73.7943 0.36251C75.2812 0.349224 76.3787 0.98117 77.1717 1.91403C77.956 2.83654 78.446 4.05459 78.7551 5.24605C79.0653 6.44152 79.1994 7.63444 79.2563 8.52572C79.2848 8.97208 79.2941 9.34447 79.2962 9.60586C79.2973 9.73659 79.2966 9.83965 79.2956 9.91043C79.2951 9.94582 79.2945 9.97314 79.2941 9.99183C79.2938 10.0012 79.2936 10.0084 79.2935 10.0133L79.2933 10.019L79.2933 10.0206L79.2933 10.0211C79.2933 10.0213 79.2933 10.0214 78.9813 10.0122C78.6694 10.003 78.6694 10.003 78.6694 10.003L78.6694 10.0019L78.6696 9.99741C78.6697 9.99332 78.6699 9.98701 78.6701 9.97856C78.6705 9.96165 78.671 9.93617 78.6715 9.90268C78.6724 9.83569 78.6731 9.73671 78.6721 9.61034C78.67 9.35752 78.661 8.99543 78.6333 8.56072C78.5776 7.68988 78.447 6.53432 78.1486 5.38438C77.8493 4.23043 77.387 3.10614 76.6837 2.27882Z" fill="white"/>
<path fill-rule="evenodd" clip-rule="evenodd" d="M77.1096 2.06894C76.436 1.20907 75.5289 0.647947 74.2934 0.659928C73.0577 0.671912 72.1732 1.24497 71.5336 2.10795C70.8897 2.97669 70.4949 4.13941 70.2573 5.31543C70.0201 6.48934 69.942 7.66387 69.9234 8.54639C69.9141 8.98727 69.9196 9.35439 69.9275 9.611C69.9315 9.73928 69.936 9.83989 69.9395 9.90823C69.9413 9.9424 69.9428 9.96849 69.9438 9.98594C69.9444 9.99466 69.9448 10.0012 69.9451 10.0056L69.9454 10.0104L69.9455 10.0115L69.9455 10.0117C69.9455 10.0118 69.9455 10.0118 69.7997 10.0223C69.6539 10.0328 69.6539 10.0327 69.6539 10.0326L69.6538 10.0307L69.6534 10.0253C69.6531 10.0205 69.6527 10.0135 69.6521 10.0043C69.651 9.98597 69.6494 9.95893 69.6476 9.92379C69.644 9.85352 69.6394 9.75081 69.6354 9.6203C69.6274 9.3593 69.6217 8.98689 69.6311 8.54001C69.6499 7.64701 69.729 6.45314 69.971 5.25553C70.2125 4.06003 70.6189 2.8481 71.3002 1.92884C71.9859 1.00382 72.9507 0.375501 74.2907 0.362507C75.6309 0.34951 76.6185 0.964781 77.3382 1.88355C78.0538 2.79706 78.5062 4.01133 78.7934 5.21286C79.0811 6.41643 79.2059 7.6195 79.2589 8.52025C79.2854 8.971 79.2941 9.3469 79.296 9.61041C79.297 9.74218 79.2964 9.8459 79.2954 9.91688C79.295 9.95237 79.2945 9.97968 79.294 9.99822C79.2938 10.0075 79.2937 10.0146 79.2935 10.0194L79.2934 10.0249L79.2933 10.0268C79.2933 10.0269 79.2933 10.027 79.1472 10.0223C79.0012 10.0176 79.0012 10.0176 79.0012 10.0176L79.0012 10.0173L79.0012 10.0162L79.0014 10.0113C79.0015 10.0069 79.0016 10.0003 79.0018 9.99148C79.0022 9.97384 79.0027 9.94747 79.0032 9.91294C79.0041 9.84389 79.0047 9.74225 79.0038 9.61269C79.0018 9.35353 78.9933 8.98286 78.9671 8.53804C78.9147 7.64767 78.7916 6.4636 78.5094 5.28316C78.2267 4.10069 77.7873 2.93407 77.1096 2.06894Z" fill="#D7FFEC"/>
</svg>
