<svg width="154" height="45" viewBox="0 0 154 45" fill="none" xmlns="http://www.w3.org/2000/svg">
<path d="M148.029 44.1016H5.69343C2.56347 44.1016 0 41.6392 0 38.6326V5.81871C0 2.81214 2.56347 0.349731 5.69343 0.349731H148.029C151.159 0.349731 153.723 2.81214 153.723 5.81871V38.6326C153.723 41.6392 151.159 44.1016 148.029 44.1016Z" fill="black"/>
<path d="M148.029 1.22613C150.665 1.22613 152.81 3.28657 152.81 5.81871V38.6326C152.81 41.1647 150.665 43.2252 148.029 43.2252H5.69343C3.05737 43.2252 0.912372 41.1647 0.912372 38.6326V5.81871C0.912372 3.28657 3.05737 1.22613 5.69343 1.22613H148.029ZM148.029 0.349731H5.69343C2.56347 0.349731 0 2.81214 0 5.81871V38.6326C0 41.6392 2.56347 44.1016 5.69343 44.1016H148.029C151.159 44.1016 153.723 41.6392 153.723 38.6326V5.81871C153.723 2.81214 151.159 0.349731 148.029 0.349731Z" fill="#A6A6A6"/>
<path d="M11.8823 8.59587C11.5478 8.93222 11.3542 9.45587 11.3542 10.134V34.3233C11.3542 35.0015 11.5478 35.5251 11.8823 35.8615L11.9648 35.9353L26.076 22.3859V22.066L11.9648 8.51658L11.8823 8.59587Z" fill="url(#paint0_linear_3_2584)"/>
<path d="M30.7744 26.9045L26.0759 22.3858V22.0659L30.7801 17.5471L30.8855 17.6059L36.4565 20.6508C38.0464 21.5149 38.0464 22.9368 36.4565 23.8064L30.8855 26.8457L30.7744 26.9045V26.9045Z" fill="url(#paint1_linear_3_2584)"/>
<path d="M30.8855 26.8458L26.0759 22.2259L11.8822 35.8614C12.4103 36.3946 13.2714 36.4589 14.2507 35.9257L30.8855 26.8458" fill="url(#paint2_linear_3_2584)"/>
<path d="M30.8855 17.6059L14.2507 8.52604C13.2714 7.99828 12.4103 8.06254 11.8822 8.59577L26.0759 22.2258L30.8855 17.6059Z" fill="url(#paint3_linear_3_2584)"/>
<path d="M53.9937 11.5543C53.9937 12.4676 53.709 13.1991 53.1482 13.7446C52.5034 14.3913 51.6636 14.7167 50.6345 14.7167C49.651 14.7167 48.8112 14.3859 48.1223 13.7337C47.432 13.0719 47.0875 12.2598 47.0875 11.2877C47.0875 10.3156 47.432 9.50344 48.1223 8.84716C48.8112 8.18952 49.651 7.85864 50.6345 7.85864C51.1242 7.85864 51.591 7.95572 52.0365 8.13619C52.4806 8.31804 52.8422 8.56414 53.1041 8.86767L52.5091 9.44465C52.0522 8.92646 51.4302 8.67079 50.6345 8.67079C49.9172 8.67079 49.2952 8.91142 48.7671 9.39679C48.2447 9.88353 47.9828 10.5138 47.9828 11.2877C47.9828 12.0616 48.2447 12.6973 48.7671 13.1841C49.2952 13.664 49.9172 13.9101 50.6345 13.9101C51.396 13.9101 52.0365 13.664 52.5418 13.1786C52.8749 12.8573 53.0642 12.4143 53.114 11.8483H50.6345V11.058H53.9424C53.9823 11.2289 53.9937 11.3943 53.9937 11.5543V11.5543Z" fill="white" stroke="white" stroke-width="0.127916" stroke-miterlimit="10"/>
<path d="M59.2416 8.81434H56.1344V10.8926H58.9356V11.6828H56.1344V13.761H59.2416V14.5663H55.2548V8.00903H59.2416V8.81434Z" fill="white" stroke="white" stroke-width="0.127916" stroke-miterlimit="10"/>
<path d="M62.9451 14.5663H62.0655V8.81434H60.1596V8.00903H64.8524V8.81434H62.9451V14.5663V14.5663Z" fill="white" stroke="white" stroke-width="0.127916" stroke-miterlimit="10"/>
<path d="M68.2486 14.5663V8.00903H69.1268V14.5663H68.2486Z" fill="white" stroke="white" stroke-width="0.127916" stroke-miterlimit="10"/>
<path d="M73.0196 14.5663H72.1471V8.81434H70.2341V8.00903H74.9326V8.81434H73.0196V14.5663Z" fill="white" stroke="white" stroke-width="0.127916" stroke-miterlimit="10"/>
<path d="M83.8173 13.7228C83.144 14.3859 82.3099 14.7167 81.315 14.7167C80.3144 14.7167 79.4803 14.3859 78.807 13.7228C78.1352 13.061 77.8007 12.2489 77.8007 11.2877C77.8007 10.3265 78.1352 9.51438 78.807 8.85263C79.4803 8.18952 80.3144 7.85864 81.315 7.85864C82.3042 7.85864 83.1383 8.18952 83.8116 8.8581C84.4891 9.52531 84.8236 10.332 84.8236 11.2877C84.8236 12.2489 84.4891 13.061 83.8173 13.7228ZM79.4575 13.1731C79.9642 13.664 80.5805 13.9101 81.315 13.9101C82.0437 13.9101 82.6658 13.664 83.1668 13.1731C83.6721 12.6823 83.9283 12.052 83.9283 11.2877C83.9283 10.5234 83.6721 9.8931 83.1668 9.40226C82.6658 8.91142 82.0437 8.66532 81.315 8.66532C80.5805 8.66532 79.9642 8.91142 79.4575 9.40226C78.9522 9.8931 78.696 10.5234 78.696 11.2877C78.696 12.052 78.9522 12.6823 79.4575 13.1731V13.1731Z" fill="white" stroke="white" stroke-width="0.127916" stroke-miterlimit="10"/>
<path d="M86.0577 14.5663V8.00903H87.1252L90.4445 13.1089H90.4829L90.4445 11.8483V8.00903H91.3227V14.5663H90.406L86.9302 9.21494H86.8918L86.9302 10.481V14.5663H86.0577V14.5663Z" fill="white" stroke="white" stroke-width="0.127916" stroke-miterlimit="10"/>
<path d="M77.5844 24.1425C74.9099 24.1425 72.725 26.0977 72.725 28.7952C72.725 31.4709 74.9099 33.4466 77.5844 33.4466C80.2646 33.4466 82.4494 31.4709 82.4494 28.7952C82.4494 26.0977 80.2646 24.1425 77.5844 24.1425ZM77.5844 31.6145C76.1169 31.6145 74.8544 30.451 74.8544 28.7952C74.8544 27.1176 76.1169 25.9746 77.5844 25.9746C79.0519 25.9746 80.3201 27.1176 80.3201 28.7952C80.3201 30.451 79.0519 31.6145 77.5844 31.6145V31.6145ZM66.9818 24.1425C64.3016 24.1425 62.1225 26.0977 62.1225 28.7952C62.1225 31.4709 64.3016 33.4466 66.9818 33.4466C69.6606 33.4466 71.8411 31.4709 71.8411 28.7952C71.8411 26.0977 69.6606 24.1425 66.9818 24.1425ZM66.9818 31.6145C65.5129 31.6145 64.2461 30.451 64.2461 28.7952C64.2461 27.1176 65.5129 25.9746 66.9818 25.9746C68.4493 25.9746 69.7118 27.1176 69.7118 28.7952C69.7118 30.451 68.4493 31.6145 66.9818 31.6145ZM54.3652 25.5685V27.5456H59.28C59.1362 28.6503 58.7519 29.4625 58.1627 30.0285C57.4453 30.7121 56.328 31.4709 54.3652 31.4709C51.3405 31.4709 48.9721 29.1261 48.9721 26.2207C48.9721 23.3153 51.3405 20.9705 54.3652 20.9705C56.0006 20.9705 57.1905 21.5844 58.0687 22.3801L59.5191 20.9869C58.2908 19.8603 56.6568 18.9948 54.3652 18.9948C50.2175 18.9948 46.7317 22.2366 46.7317 26.2207C46.7317 30.2049 50.2175 33.4466 54.3652 33.4466C56.6069 33.4466 58.2908 32.7411 59.6145 31.4176C60.971 30.1146 61.3937 28.2825 61.3937 26.8032C61.3937 26.3438 61.3538 25.9213 61.2827 25.5685H54.3652ZM105.956 27.1012C105.556 26.0607 104.322 24.1425 101.809 24.1425C99.3176 24.1425 97.2438 26.0279 97.2438 28.7952C97.2438 31.4012 99.2963 33.4466 102.048 33.4466C104.272 33.4466 105.556 32.1436 106.084 31.3848L104.433 30.3279C103.882 31.1018 103.132 31.6145 102.048 31.6145C100.97 31.6145 100.197 31.1401 99.7019 30.2049L106.18 27.6303L105.956 27.1012V27.1012ZM99.3518 28.6503C99.2963 26.8565 100.802 25.9377 101.881 25.9377C102.727 25.9377 103.444 26.3438 103.683 26.9248L99.3518 28.6503V28.6503ZM94.0868 33.1636H96.2161V19.4911H94.0868V33.1636ZM90.5996 25.1789H90.5284C90.0501 24.6347 89.1378 24.1425 87.982 24.1425C85.5566 24.1425 83.339 26.1879 83.339 28.8103C83.339 31.4176 85.5566 33.4466 87.982 33.4466C89.1378 33.4466 90.0501 32.9503 90.5284 32.3897H90.5996V33.0569C90.5996 34.8357 89.6103 35.7914 88.0147 35.7914C86.7138 35.7914 85.9068 34.889 85.5737 34.1302L83.7219 34.8726C84.2557 36.1059 85.6691 37.6235 88.0147 37.6235C90.5113 37.6235 92.6179 36.2125 92.6179 32.7794V24.4255H90.5996V25.1789V25.1789ZM88.1642 31.6145C86.6967 31.6145 85.4684 30.4346 85.4684 28.8103C85.4684 27.171 86.6967 25.9746 88.1642 25.9746C89.6103 25.9746 90.7504 27.171 90.7504 28.8103C90.7504 30.4346 89.6103 31.6145 88.1642 31.6145V31.6145ZM115.925 19.4911H110.833V33.1636H112.956V27.9831H115.925C118.284 27.9831 120.597 26.3438 120.597 23.7364C120.597 21.1305 118.278 19.4911 115.925 19.4911V19.4911ZM115.981 26.0813H112.956V21.393H115.981C117.566 21.393 118.472 22.6577 118.472 23.7364C118.472 24.7947 117.566 26.0813 115.981 26.0813ZM129.109 24.1165C127.574 24.1165 125.979 24.7673 125.322 26.2098L127.207 26.9686C127.613 26.2098 128.358 25.9637 129.147 25.9637C130.249 25.9637 131.366 26.5994 131.383 27.722V27.8655C130.999 27.6522 130.176 27.3364 129.164 27.3364C127.134 27.3364 125.066 28.4097 125.066 30.4127C125.066 32.2448 126.729 33.4247 128.598 33.4247C130.027 33.4247 130.815 32.8054 131.31 32.0848H131.383V33.1417H133.434V27.897C133.434 25.4728 131.55 24.1165 129.109 24.1165ZM128.852 31.609C128.158 31.609 127.19 31.2782 127.19 30.451C127.19 29.3927 128.397 28.9867 129.442 28.9867C130.377 28.9867 130.815 29.1849 131.383 29.446C131.216 30.7121 130.082 31.609 128.852 31.609V31.609ZM140.907 24.416L138.466 30.343H138.393L135.869 24.416H133.579L137.371 32.6987L135.208 37.3077H137.427L143.269 24.416H140.907V24.416ZM121.764 33.1636H123.893V19.4911H121.764V33.1636Z" fill="white"/>
<defs>
<linearGradient id="paint0_linear_3_2584" x1="24.8231" y1="34.5752" x2="6.48139" y2="15.4808" gradientUnits="userSpaceOnUse">
<stop stop-color="#00A0FF"/>
<stop offset="0.0066" stop-color="#00A1FF"/>
<stop offset="0.2601" stop-color="#00BEFF"/>
<stop offset="0.5122" stop-color="#00D2FF"/>
<stop offset="0.7604" stop-color="#00DFFF"/>
<stop offset="1" stop-color="#00E3FF"/>
</linearGradient>
<linearGradient id="paint1_linear_3_2584" x1="38.5268" y1="22.2243" x2="10.9741" y2="22.2243" gradientUnits="userSpaceOnUse">
<stop stop-color="#FFE000"/>
<stop offset="0.4087" stop-color="#FFBD00"/>
<stop offset="0.7754" stop-color="#FFA500"/>
<stop offset="1" stop-color="#FF9C00"/>
</linearGradient>
<linearGradient id="paint2_linear_3_2584" x1="28.2702" y1="19.7144" x2="3.39737" y2="-6.17919" gradientUnits="userSpaceOnUse">
<stop stop-color="#FF3A44"/>
<stop offset="1" stop-color="#C31162"/>
</linearGradient>
<linearGradient id="paint3_linear_3_2584" x1="8.30935" y1="43.909" x2="19.4162" y2="32.3465" gradientUnits="userSpaceOnUse">
<stop stop-color="#32A071"/>
<stop offset="0.0685" stop-color="#2DA771"/>
<stop offset="0.4762" stop-color="#15CF74"/>
<stop offset="0.8009" stop-color="#06E775"/>
<stop offset="1" stop-color="#00F076"/>
</linearGradient>
</defs>
</svg>
