<svg width="43" height="53" viewBox="0 0 43 53" fill="none" xmlns="http://www.w3.org/2000/svg">
<path d="M3.2561 11.177L0 52.5317H42.4724L38.6763 11.177H3.2561Z" fill="#039D55"/>
<path d="M9.90554 26.2659H14.6185L19.8028 42.3128C20.0646 43.0845 20.3133 43.8429 20.549 44.5881C20.7846 45.3066 21.0072 46.0384 21.2167 46.7835H21.2952C21.5047 46.0384 21.7141 45.3199 21.9236 44.628C22.1593 43.9361 22.4211 43.1643 22.7091 42.3128L27.7756 26.2659H32.4885L34.6486 51.414H31.0354L30.0142 38.0815C29.9095 36.7775 29.8309 35.4868 29.7786 34.2095C29.7262 32.9055 29.6738 31.5882 29.6215 30.2576H29.5429C29.1764 31.5616 28.7967 32.8656 28.4039 34.1696C28.0374 35.4735 27.6446 36.7775 27.2257 38.0815L22.8662 51.414H19.5671L15.2076 38.0416C14.7625 36.6844 14.3567 35.3937 13.9901 34.1696C13.6235 32.9188 13.257 31.6148 12.8904 30.2576H12.8119C12.7595 31.5616 12.681 32.8656 12.5762 34.1696C12.4977 35.4735 12.406 36.7775 12.3013 38.0815L11.3587 51.414H7.82397L9.90554 26.2659Z" fill="white"/>
<path d="M15.3686 15.0889C16.1402 15.0889 16.7657 14.4634 16.7657 13.6918C16.7657 12.9202 16.1402 12.2947 15.3686 12.2947C14.5969 12.2947 13.9714 12.9202 13.9714 13.6918C13.9714 14.4634 14.5969 15.0889 15.3686 15.0889Z" fill="white"/>
<path fill-rule="evenodd" clip-rule="evenodd" d="M15.3686 12.4491C14.6811 12.4491 14.1248 13.006 14.1248 13.6918C14.1248 14.3776 14.6811 14.9344 15.3686 14.9344C16.056 14.9344 16.6123 14.3776 16.6123 13.6918C16.6123 13.006 16.056 12.4491 15.3686 12.4491ZM13.9714 13.6918C13.9714 12.9197 14.5975 12.2947 15.3686 12.2947C16.1396 12.2947 16.7657 12.9197 16.7657 13.6918C16.7657 14.4639 16.1396 15.0889 15.3686 15.0889C14.5975 15.0889 13.9714 14.4639 13.9714 13.6918Z" fill="#2F3C2C"/>
<path d="M25.9865 15.0889C26.7581 15.0889 27.3836 14.4634 27.3836 13.6918C27.3836 12.9202 26.7581 12.2947 25.9865 12.2947C25.2149 12.2947 24.5894 12.9202 24.5894 13.6918C24.5894 14.4634 25.2149 15.0889 25.9865 15.0889Z" fill="white"/>
<path fill-rule="evenodd" clip-rule="evenodd" d="M25.9865 12.4491C25.2991 12.4491 24.7428 13.006 24.7428 13.6918C24.7428 14.3776 25.2991 14.9344 25.9865 14.9344C26.6739 14.9344 27.2302 14.3776 27.2302 13.6918C27.2302 13.006 26.6739 12.4491 25.9865 12.4491ZM24.5894 13.6918C24.5894 12.9197 25.2154 12.2947 25.9865 12.2947C26.7576 12.2947 27.3836 12.9197 27.3836 13.6918C27.3836 14.4639 26.7576 15.0889 25.9865 15.0889C25.2154 15.0889 24.5894 14.4639 24.5894 13.6918Z" fill="#2F3C2C"/>
<path fill-rule="evenodd" clip-rule="evenodd" d="M23.2458 2.21511C22.4431 1.27084 21.3732 0.663579 19.9132 0.676625C18.4525 0.689677 17.4106 1.30987 16.6496 2.25588C15.8781 3.21499 15.3981 4.50911 15.1072 5.83529C14.8175 7.15665 14.7216 8.48119 14.6988 9.47873C14.6874 9.97663 14.6942 10.3911 14.7039 10.6804C14.7087 10.825 14.7142 10.9382 14.7185 11.0148C14.7207 11.0531 14.7225 11.0822 14.7238 11.1015C14.7244 11.1112 14.7249 11.1184 14.7252 11.1231L14.7256 11.1282L14.7257 11.1293L14.7257 11.1295C14.7257 11.1294 14.7257 11.1294 14.3659 11.1533C14.0061 11.1772 14.0061 11.1771 14.0061 11.1769L14.0059 11.1745L14.0054 11.1679C14.005 11.1623 14.0044 11.154 14.0037 11.1434C14.0023 11.122 14.0004 11.0907 13.9981 11.0502C13.9936 10.9692 13.9878 10.8512 13.9828 10.7015C13.9728 10.4022 13.9658 9.97577 13.9775 9.46422C14.0009 8.44284 14.099 7.07432 14.4006 5.69906C14.7011 4.32861 15.2097 2.92256 16.0737 1.84856C16.9482 0.761451 18.1885 0.0155875 19.9064 0.000237591C21.6249 -0.0151186 22.8933 0.715283 23.81 1.79348C24.7164 2.85972 25.2828 4.26754 25.64 5.64463C25.9985 7.02635 26.1535 8.40513 26.2193 9.43527C26.2523 9.95117 26.263 10.3816 26.2655 10.6837C26.2667 10.8348 26.2659 10.9539 26.2647 11.0357C26.2641 11.0766 26.2635 11.1082 26.263 11.1298C26.2627 11.1406 26.2625 11.1489 26.2623 11.1546L26.2621 11.1613L26.262 11.1631L26.262 11.1637C26.262 11.1638 26.262 11.164 25.9015 11.1533C25.541 11.1427 25.5409 11.1427 25.5409 11.1427L25.541 11.1414L25.5411 11.1362C25.5413 11.1315 25.5415 11.1242 25.5417 11.1145C25.5422 11.0949 25.5428 11.0655 25.5434 11.0268C25.5444 10.9493 25.5453 10.8349 25.5441 10.6889C25.5417 10.3967 25.5313 9.97815 25.4992 9.47572C25.4349 8.4692 25.2839 7.13361 24.9391 5.80451C24.593 4.47077 24.0588 3.17133 23.2458 2.21511Z" fill="white"/>
<path fill-rule="evenodd" clip-rule="evenodd" d="M23.7382 1.97253C22.9596 0.97869 21.9112 0.330146 20.4832 0.343993C19.055 0.357844 18.0327 1.02018 17.2934 2.01761C16.5492 3.02171 16.0929 4.36557 15.8183 5.72482C15.5441 7.08162 15.4538 8.43914 15.4323 9.45915C15.4216 9.96872 15.428 10.393 15.4371 10.6896C15.4417 10.8379 15.4469 10.9542 15.451 11.0332C15.453 11.0727 15.4548 11.1028 15.456 11.123C15.4566 11.1331 15.4571 11.1407 15.4574 11.1457L15.4578 11.1512L15.4579 11.1525L15.4579 11.1528C15.4579 11.1528 15.4579 11.1528 15.2894 11.165C15.1209 11.1771 15.1209 11.177 15.1209 11.1769L15.1207 11.1748L15.1203 11.1685C15.12 11.1629 15.1194 11.1548 15.1188 11.1442C15.1175 11.123 15.1157 11.0918 15.1136 11.0512C15.1094 10.9699 15.1041 10.8512 15.0995 10.7004C15.0902 10.3987 15.0837 9.96828 15.0945 9.45178C15.1163 8.41965 15.2077 7.03978 15.4874 5.65558C15.7665 4.27383 16.2362 2.87308 17.0237 1.8106C17.8161 0.741457 18.9313 0.0152521 20.48 0.000233482C22.029 -0.0147883 23.1705 0.696342 24.0023 1.75825C24.8294 2.81408 25.3523 4.21754 25.6843 5.60627C26.0168 6.99736 26.161 8.38785 26.2223 9.42895C26.253 9.94992 26.263 10.3844 26.2652 10.689C26.2664 10.8413 26.2656 10.9611 26.2645 11.0432C26.264 11.0842 26.2634 11.1158 26.2629 11.1372C26.2627 11.1479 26.2625 11.1561 26.2623 11.1616L26.2622 11.168L26.2621 11.1702C26.2621 11.1703 26.2621 11.1704 26.0933 11.165C25.9244 11.1596 25.9244 11.1596 25.9244 11.1595L25.9244 11.1593L25.9245 11.1579L25.9246 11.1523C25.9248 11.1472 25.925 11.1396 25.9252 11.1294C25.9256 11.109 25.9262 11.0785 25.9267 11.0386C25.9278 10.9588 25.9286 10.8413 25.9274 10.6916C25.9252 10.392 25.9154 9.96363 25.8851 9.44951C25.8245 8.42042 25.6822 7.05187 25.356 5.68752C25.0293 4.32082 24.5214 2.97245 23.7382 1.97253Z" fill="#2F3C2C"/>
</svg>
