<svg width="60" height="60" viewBox="0 0 60 60" fill="none" xmlns="http://www.w3.org/2000/svg">
<rect width="60" height="60" rx="20" fill="url(#paint0_linear_302_437)"/>
<path d="M29.4951 28.9771C25.6771 28.9771 21.8592 28.9663 18.0412 28.988C17.4525 28.988 16.9757 28.5975 17.001 27.9358C17.0407 26.9596 17.0118 25.9797 17.0118 24.9999C17.0118 23.626 17.4705 22.4219 18.3772 21.3951C19.161 20.5057 19.9701 19.6307 20.7683 18.7521C21.2307 18.2459 21.8014 18 22.4913 18C27.2953 18.0036 32.0994 18.0036 36.907 18C37.6403 18 38.2399 18.2676 38.6986 18.8352C39.4391 19.7536 40.1867 20.6647 40.9055 21.5976C41.6424 22.5521 42 23.6476 42 24.8589C42 25.9183 42 26.9813 42 28.0407C42 28.6228 41.646 28.9735 41.0573 28.9735C37.2032 28.9735 33.3491 28.9735 29.4915 28.9735L29.4951 28.9771ZM26.2189 28.0949C26.2189 27.972 26.2189 27.8743 26.2189 27.7767C26.2189 26.6993 26.2189 25.6218 26.2189 24.5443C26.2189 24.3708 26.2298 24.1972 26.2514 24.0273C26.3887 22.8667 26.7535 21.7711 27.1797 20.6937C27.4181 20.0935 27.6782 19.5041 27.9419 18.8822C27.3856 18.8822 26.8474 18.8786 26.3128 18.8894C26.2514 18.8894 26.1756 18.969 26.1395 19.0305C25.2184 20.5527 24.6332 22.1942 24.5249 23.9731C24.4454 25.3036 24.4779 26.6378 24.4635 27.972C24.4635 28.0153 24.4815 28.0551 24.4924 28.0985H26.2189V28.0949ZM31.5214 18.8822C31.8537 19.6994 32.1897 20.4767 32.4895 21.2686C32.9988 22.61 33.313 23.9839 33.2408 25.4374C33.201 26.2292 33.2335 27.0247 33.2335 27.8201C33.2335 27.9069 33.2408 27.9973 33.2444 28.0841H34.989C34.989 27.4983 34.989 26.9343 34.989 26.3702C34.989 25.2855 35.0215 24.1972 34.8337 23.1198C34.5808 21.6663 34.086 20.3068 33.3202 19.0449C33.2769 18.9726 33.1758 18.8931 33.0999 18.8931C32.5798 18.8786 32.0596 18.8858 31.525 18.8858L31.5214 18.8822Z" fill="white"/>
<path d="M19.2043 30.3042H40.2482V30.5934C40.2482 33.3992 40.2482 36.2049 40.2482 39.0143C40.2482 40.5726 39.1104 41.708 37.55 41.708C35.9787 41.708 34.4111 41.708 32.7965 41.708C32.7965 41.6031 32.7965 41.5055 32.7965 41.4115C32.7965 39.9218 32.8037 38.4322 32.7965 36.9425C32.7857 35.4818 31.8574 34.2633 30.5137 33.9198C28.5307 33.4137 26.6777 34.8599 26.6596 36.9389C26.6488 38.4213 26.6596 39.9001 26.6596 41.3826C26.6596 41.4802 26.6596 41.5814 26.6596 41.6971C26.5513 41.7007 26.461 41.7116 26.3743 41.7116C24.8753 41.7116 23.3799 41.7116 21.8809 41.7116C20.3602 41.7116 19.208 40.5654 19.208 39.0468C19.208 36.223 19.208 33.3992 19.208 30.5718V30.3078L19.2043 30.3042Z" fill="white"/>
<defs>
<linearGradient id="paint0_linear_302_437" x1="30" y1="0" x2="30" y2="60" gradientUnits="userSpaceOnUse">
<stop stop-color="#54ED63"/>
<stop offset="1" stop-color="#02B714"/>
</linearGradient>
</defs>
</svg>
