<svg width="60" height="60" viewBox="0 0 60 60" fill="none" xmlns="http://www.w3.org/2000/svg">
<rect width="60" height="60" rx="20" fill="url(#paint0_linear_302_438)"/>
<path d="M22.6401 21.0793C22.4225 18.5982 23.028 16.4818 24.8396 14.8199C26.2019 13.5651 27.8243 12.9638 29.6785 13.0017C31.0171 13.0301 32.2375 13.4231 33.3444 14.1665C34.4654 14.9193 35.2837 15.9231 35.8324 17.1589C36.3764 18.3852 36.4426 19.6778 36.3764 21.0461C36.6696 21.0461 36.9392 21.0461 37.2089 21.0461C39.4604 21.0461 41.0403 22.6276 41.1254 24.8861C41.2342 27.7175 41.395 30.5536 41.5274 33.3851C41.6315 35.6199 41.7356 37.8547 41.8396 40.0896C41.8917 41.2022 41.9484 42.3149 41.9957 43.4229C42.0951 45.7571 40.449 47.4806 38.1123 47.4806C32.3605 47.4806 26.6087 47.4806 20.8569 47.4806C18.927 47.4806 17.4086 46.2827 17.0681 44.3888C16.9451 43.7164 17.0207 43.0062 17.0491 42.3149C17.1201 40.5678 17.2194 38.8254 17.3046 37.0782C17.4181 34.7487 17.5316 32.4192 17.6404 30.0849C17.7255 28.3378 17.8154 26.5953 17.8769 24.8482C17.9431 22.8832 19.1777 21.406 21.1123 21.084C21.5853 21.0035 22.0867 21.0745 22.6449 21.0745L22.6401 21.0793ZM34.0681 21.0319C34.262 18.8776 33.7322 17.0499 31.7882 15.9278C30.1137 14.9619 28.4061 15.0566 26.831 16.174C25.1613 17.3577 24.7498 19.0812 24.939 21.0319H34.0728H34.0681ZM23.0374 25.8756C23.0422 26.4959 23.5767 27.0215 24.1916 27.0073C24.816 26.9931 25.3268 26.4628 25.3174 25.8425C25.3032 25.2175 24.7734 24.6967 24.1585 24.7109C23.5341 24.7251 23.0327 25.2459 23.0374 25.8756ZM35.9648 25.852C35.9648 25.227 35.4445 24.7061 34.8249 24.7061C34.2052 24.7061 33.6897 25.2364 33.6897 25.8614C33.6897 26.4722 34.2242 27.012 34.8343 27.0025C35.4587 26.9978 35.9696 26.477 35.9648 25.852Z" fill="white"/>
<defs>
<linearGradient id="paint0_linear_302_438" x1="30" y1="0" x2="30" y2="60" gradientUnits="userSpaceOnUse">
<stop stop-color="#7BCAFD"/>
<stop offset="1" stop-color="#047BC7"/>
</linearGradient>
</defs>
</svg>
