<svg width="60" height="60" viewBox="0 0 60 60" fill="none" xmlns="http://www.w3.org/2000/svg">
<rect width="60" height="60" rx="20" fill="url(#paint0_linear_302_439)"/>
<path d="M41.9927 24.6434V24.9746C41.9927 28.8345 41.9927 32.698 42.0001 36.5579C42.0001 36.7861 41.9302 36.9001 41.7281 36.9995C37.8647 38.9386 34.0049 40.8851 30.1452 42.828C30.057 42.8721 29.9651 42.9126 29.8364 42.9751V42.6771C29.8364 38.7988 29.8364 34.9168 29.8364 31.0386C29.8364 30.8546 29.8658 30.7405 30.0496 30.6485C33.9461 28.6947 37.8426 26.7298 41.7354 24.7685C41.8089 24.7317 41.8824 24.7023 41.9927 24.6508V24.6434Z" fill="white"/>
<path d="M29.1489 42.9675C28.9027 42.846 28.6821 42.7356 28.4615 42.6253C24.7158 40.7376 20.9737 38.85 17.2279 36.966C17.0809 36.8925 17 36.8262 17 36.6422C17.0074 32.7088 17.0037 28.7716 17.0037 24.8381C17.0037 24.7866 17.011 24.7314 17.0147 24.6468C17.1176 24.6946 17.2022 24.7277 17.2794 24.7682C18.5954 25.4305 19.9113 26.0965 21.231 26.7515C21.4038 26.8361 21.4699 26.9318 21.4663 27.1268C21.4552 28.4478 21.4626 29.7688 21.4626 31.0897V31.4393C21.8375 31.4393 22.1978 31.4687 22.5507 31.432C23.0469 31.3804 23.4071 31.535 23.7343 31.9177C24.1203 32.3666 24.5651 32.764 25.0209 33.2165V28.7054C25.1017 28.7275 25.1532 28.7348 25.1936 28.7569C26.4545 29.3898 27.7117 30.019 28.9688 30.6629C29.057 30.7071 29.1526 30.8506 29.1526 30.9462C29.1637 34.8981 29.16 38.8537 29.16 42.8056C29.16 42.8497 29.1526 42.8939 29.1453 42.9675H29.1489Z" fill="white"/>
<path d="M41.6176 24.0764C40.1178 24.8307 38.6621 25.5629 37.2028 26.2989C34.7252 27.5462 32.2476 28.7936 29.7737 30.0483C29.5679 30.1551 29.4172 30.1477 29.215 30.041C28.035 29.4339 26.8477 28.8414 25.6641 28.2417C25.5905 28.2049 25.5207 28.1644 25.4067 28.1055C25.8662 27.859 26.2926 27.6272 26.719 27.399C30.123 25.5776 33.5305 23.7563 36.9308 21.9275C37.0962 21.8392 37.2249 21.8392 37.3866 21.9275C38.7173 22.6045 40.0516 23.2742 41.386 23.9476C41.4522 23.9807 41.511 24.0212 41.6176 24.0801V24.0764Z" fill="white"/>
<path d="M17.3748 24.0692C17.7644 23.8705 18.1246 23.6828 18.4886 23.4989C22.0763 21.6922 25.664 19.8855 29.2517 18.0715C29.4245 17.9832 29.5568 17.9721 29.7369 18.0641C30.9978 18.7117 32.2659 19.3446 33.5672 19.9996C33.49 20.0548 33.4349 20.0952 33.3761 20.1284C29.5972 22.1521 25.822 24.1796 22.0395 26.196C21.9476 26.2475 21.7932 26.2843 21.7124 26.2402C20.2751 25.5263 18.8451 24.8014 17.3748 24.0618V24.0692Z" fill="white"/>
<defs>
<linearGradient id="paint0_linear_302_439" x1="30" y1="0" x2="30" y2="60" gradientUnits="userSpaceOnUse">
<stop stop-color="#A9F97B"/>
<stop offset="1" stop-color="#45BD00"/>
</linearGradient>
</defs>
</svg>
