<svg width="60" height="60" viewBox="0 0 60 60" fill="none" xmlns="http://www.w3.org/2000/svg">
<rect width="60" height="60" rx="20" fill="url(#paint0_linear_302_440)"/>
<path d="M23.131 17C23.4352 17.0677 23.7425 17.1292 24.0468 17.203C26.072 17.7075 27.7438 19.6117 28.0664 21.685C28.2631 22.934 27.922 24.0475 27.3781 25.1273C26.4039 27.0653 25.0947 28.7756 23.7087 30.4306C23.5336 30.6398 23.3615 30.8521 23.1771 31.0551C22.8267 31.4396 22.2951 31.4488 21.954 31.0582C20.3713 29.2309 18.8716 27.3452 17.7715 25.1765C17.3873 24.4228 17.0616 23.6446 17.0093 22.7802C16.9479 21.7158 17.1906 20.7191 17.7315 19.8086C18.6688 18.2305 20.0486 17.2984 21.8741 17.0461C21.914 17.04 21.9478 17.0154 21.9847 17C22.3658 17 22.7468 17 23.1279 17H23.131ZM24.9349 22.5802C24.9318 21.2636 23.9085 20.2054 22.5532 20.1962C21.2472 20.1869 20.1869 21.2728 20.19 22.5771C20.19 23.8814 21.2041 24.9519 22.5748 24.9612C23.8839 24.9704 24.9349 23.8876 24.938 22.5802H24.9349Z" fill="white"/>
<path d="M19.4709 30.5875C19.6737 30.8275 19.8704 31.0674 20.0732 31.3043C20.3037 31.575 20.5342 31.8488 20.7739 32.1133C21.7665 33.2146 23.4107 33.1961 24.3848 32.0795C25.8476 30.403 27.2183 28.6588 28.3184 26.7146C28.3922 26.5854 28.4813 26.5577 28.6165 26.5577C30.9367 26.5608 33.26 26.5577 35.5802 26.5577C36.0228 26.5577 36.3178 26.7454 36.4376 27.0991C36.5606 27.456 36.4315 27.8036 36.0596 28.062C35.1285 28.7111 34.1943 29.3571 33.26 30.0031C28.4875 33.313 23.7118 36.6199 18.9392 39.9299C18.4936 40.2406 18.1525 40.2806 17.8421 40.053C17.5379 39.8315 17.4488 39.5208 17.5256 39.1701C18.1525 36.3277 18.7856 33.4853 19.4187 30.6429C19.4187 30.6306 19.4402 30.6183 19.4709 30.5845V30.5875Z" fill="white"/>
<path d="M29.4094 42.4923C26.4991 42.4923 23.5919 42.4923 20.6817 42.4923C20.1008 42.4923 19.7351 42.1047 19.8058 41.5725C19.8427 41.2864 20.0332 41.105 20.2576 40.9511C22.0277 39.7237 23.7978 38.4963 25.5679 37.2689C26.2563 36.7921 26.9508 36.3246 27.6269 35.8354C28.0049 35.5617 28.3614 35.5401 28.7794 35.7616C32.0154 37.4843 35.2575 39.1977 38.4935 40.9142C39.102 41.2372 39.2403 41.8463 38.8008 42.2708C38.6072 42.4585 38.3706 42.4923 38.1125 42.4923C35.2114 42.4923 32.3104 42.4923 29.4094 42.4923Z" fill="white"/>
<path d="M41.997 39.573C42.0216 40.179 41.4715 40.5881 40.9491 40.4035C40.8569 40.3697 40.7678 40.3266 40.6787 40.2805C37.4457 38.567 34.2159 36.8536 30.986 35.1402C30.943 35.1156 30.8969 35.094 30.8539 35.0694C30.273 34.7341 30.23 34.0543 30.774 33.6636C31.4347 33.1899 32.1077 32.7346 32.7746 32.2732C34.6123 30.9996 36.45 29.723 38.2908 28.4525C38.7057 28.1665 39.1329 28.1695 39.4156 28.4833C39.5262 28.6064 39.6092 28.7755 39.6461 28.9386C40.2146 31.4641 40.777 33.9928 41.3363 36.5183C41.5422 37.4473 41.7481 38.3763 41.954 39.3053C41.9786 39.4099 41.9909 39.5176 42.0001 39.5699L41.997 39.573Z" fill="white"/>
<defs>
<linearGradient id="paint0_linear_302_440" x1="30" y1="0" x2="30" y2="60" gradientUnits="userSpaceOnUse">
<stop stop-color="#D3A2F5"/>
<stop offset="1" stop-color="#8800E7"/>
</linearGradient>
</defs>
</svg>
