<svg width="60" height="60" viewBox="0 0 60 60" fill="none" xmlns="http://www.w3.org/2000/svg">
<rect width="60" height="60" rx="20" fill="url(#paint0_linear_302_441)"/>
<path d="M17 19.5447C17.1803 19.1388 17.4893 18.9938 17.9335 19.0002C19.3562 19.0195 20.7822 19.0067 22.2082 19.0067C23.4314 19.0067 24.3488 19.925 24.4325 21.1429C24.4969 22.0902 24.6353 23.0343 24.7383 23.9816C24.7705 24.2716 24.8026 24.5616 24.8381 24.8709H25.1664C30.4808 24.8709 35.7985 24.8773 41.1129 24.8612C41.7631 24.8612 42.0818 25.3188 41.982 25.8955C41.5925 28.0898 41.2449 30.2905 40.8779 32.4848C40.8232 32.8134 40.7781 33.1453 40.6977 33.4675C40.4466 34.476 39.6 35.1334 38.5635 35.1334C34.1439 35.1334 29.7244 35.1334 25.3016 35.1334C24.9475 35.1334 24.6578 35.2332 24.4969 35.5683C24.278 36.0259 24.5934 36.5479 25.1149 36.5994C25.205 36.6091 25.2951 36.6026 25.3821 36.6026C29.2093 36.6026 33.0334 36.6026 36.8607 36.6026C38.1193 36.6026 39.0818 37.5822 39.0721 38.842C39.0657 39.9311 38.2062 40.8816 37.1214 40.9944C36.0077 41.1136 34.939 40.3661 34.7394 39.277C34.6686 38.8968 34.7298 38.4908 34.7298 38.0816H30.175C30.4197 38.9516 30.2651 39.7281 29.6214 40.3725C29.1514 40.8397 28.572 41.0331 27.9121 40.9976C26.8821 40.9396 25.5076 39.8699 25.9904 38.0655C25.7168 38.0655 25.4529 38.0655 25.1857 38.0655C24.1428 38.0623 23.2544 37.376 23.0194 36.3964C22.7812 35.404 23.2254 34.4084 24.1428 33.9251C24.3005 33.8413 24.3488 33.7543 24.3295 33.5867C24.2039 32.4944 24.0816 31.4054 23.9593 30.3131C23.837 29.2208 23.7179 28.1285 23.5956 27.0394C23.4732 25.931 23.3477 24.8226 23.2254 23.7174C23.1353 22.9022 23.0387 22.0838 22.9614 21.2654C22.9131 20.753 22.6267 20.4663 22.1084 20.4663C20.7178 20.4663 19.3241 20.4534 17.9335 20.4727C17.4893 20.4792 17.1803 20.3342 17 19.9282V19.5383V19.5447ZM27.3553 30.0134C27.3553 30.4677 27.3553 30.9253 27.3553 31.3796C27.3553 31.8661 27.6675 32.2109 28.0924 32.2077C28.5108 32.2045 28.8199 31.8629 28.8199 31.3957C28.8199 30.4677 28.8231 29.5398 28.8199 28.6118C28.8199 28.1446 28.5012 27.8063 28.0827 27.8095C27.6643 27.8127 27.3585 28.1542 27.3553 28.6215C27.3553 29.0854 27.3553 29.5494 27.3553 30.0134ZM33.2169 30.0199C33.2169 29.5559 33.2169 29.0919 33.2169 28.6279C33.2169 28.1446 32.895 27.7998 32.4701 27.8095C32.0516 27.8192 31.7523 28.1575 31.7491 28.6311C31.7491 29.5494 31.7491 30.4709 31.7491 31.3893C31.7491 31.8629 32.0516 32.2012 32.4701 32.2109C32.895 32.2206 33.2137 31.8726 33.2137 31.3893C33.2137 30.9349 33.2137 30.4774 33.2137 30.0231L33.2169 30.0199ZM36.1461 29.9844C36.1461 30.4548 36.1461 30.9285 36.1461 31.3989C36.1493 31.8661 36.4616 32.2077 36.88 32.2077C37.2985 32.2077 37.6107 31.8661 37.6107 31.3989C37.6107 30.4709 37.6139 29.543 37.6107 28.615C37.6107 28.1478 37.2953 27.8063 36.8768 27.8063C36.4583 27.8063 36.1493 28.1478 36.1461 28.615C36.1461 29.0693 36.1461 29.5269 36.1461 29.9812V29.9844Z" fill="white"/>
<path d="M33.2171 23.3854C33.2171 22.1384 33.2106 20.9076 33.2203 19.6799C33.2203 19.2901 33.5551 19.0065 33.9735 19.0065C35.4639 19.0065 36.951 19.0065 38.4414 19.0065C38.9049 19.0065 39.3684 19.0001 39.832 19.0065C40.2118 19.013 40.5337 19.3094 40.5337 19.6799C40.5433 20.9076 40.5369 22.1384 40.5369 23.3854H33.2139H33.2171Z" fill="white"/>
<path d="M27.3553 23.3854C27.3553 22.625 27.3488 21.8839 27.3553 21.1461C27.3585 20.8045 27.6514 20.4855 27.9894 20.4823C29.2319 20.4694 30.4776 20.4759 31.733 20.4759V23.3854H27.3521H27.3553Z" fill="white"/>
<defs>
<linearGradient id="paint0_linear_302_441" x1="30" y1="0" x2="30" y2="60" gradientUnits="userSpaceOnUse">
<stop stop-color="#59F3AB"/>
<stop offset="1" stop-color="#00BB63"/>
</linearGradient>
</defs>
</svg>
