<svg width="60" height="60" viewBox="0 0 60 60" fill="none" xmlns="http://www.w3.org/2000/svg">
<rect width="60" height="60" rx="20" fill="url(#paint0_linear_302_442)"/>
<path d="M17 32.9132C17.1223 32.6748 17.3186 32.5975 17.5825 32.6007C18.2488 32.6136 18.9182 32.6007 19.5844 32.6039C19.9771 32.6039 20.1251 32.7586 20.1251 33.1548C20.1251 36.1993 20.1251 39.247 20.1316 42.2914C20.1316 42.5556 20.0511 42.7457 19.8355 42.881H17.0032V32.91L17 32.9132Z" fill="white"/>
<path d="M41.3733 28.1643C41.1029 28.4285 40.8261 28.6894 40.5558 28.96C37.7589 31.7597 34.9621 34.5593 32.1685 37.3589C32.0526 37.4749 31.9464 37.5747 31.7694 37.4974C32.043 35.9768 31.2351 34.7558 29.7418 34.4498C29.4747 34.395 29.1914 34.3982 28.9146 34.395C28.271 34.3885 27.6273 34.3982 26.9868 34.3885C26.8774 34.3885 26.7422 34.3402 26.6682 34.2661C24.7628 32.3718 22.8672 30.4678 20.9683 28.567C20.9393 28.538 20.9168 28.5058 20.8782 28.4639C20.9425 28.3963 21.0005 28.3286 21.0616 28.2674C22.1044 27.2268 23.1504 26.1862 24.1867 25.1424C24.8497 24.4723 24.9334 23.5412 24.412 22.8357C24.1513 22.4813 23.8166 22.2912 23.3628 22.3492C22.7642 22.4265 22.2106 22.3234 21.7311 21.9368C21.1163 21.4407 20.8556 20.7835 20.9812 20.0103C21.1196 19.1437 21.6313 18.5412 22.4616 18.2577C24.1159 17.6907 25.4387 19.134 25.1652 20.5161C25.0943 20.8737 25.2199 21.1894 25.487 21.4439C26.1146 22.0464 27.0801 22.0915 27.756 21.5406C27.9394 21.3924 28.1004 21.2184 28.2677 21.0541C29.214 20.1102 30.157 19.1662 31.1 18.2223C31.1579 18.1643 31.1965 18.0902 31.2577 18C31.9046 18.6508 32.5032 19.2564 33.1083 19.8621C33.575 20.3292 34.0448 20.7932 34.5051 21.2635C34.8237 21.5889 34.8623 22.0013 34.6306 22.3557C34.534 22.5039 34.4214 22.5747 34.2283 22.5586C32.6673 22.4362 31.5763 23.3802 31.1386 24.3756C30.2793 26.3312 31.6149 28.4832 33.7455 28.5606C35.4803 28.6218 36.9093 27.1527 36.8771 25.3454C36.8739 25.1456 36.8191 24.9427 37.0444 24.8041C37.2826 24.6592 37.5272 24.6076 37.7879 24.6914C37.9134 24.7332 38.0422 24.8106 38.1355 24.904C39.1976 25.9607 40.2565 27.0206 41.3153 28.0805C41.3314 28.0966 41.3411 28.1192 41.3733 28.1675V28.1643Z" fill="white"/>
<path d="M21.0229 42.4426V33.5218C22.0915 33.4252 23.1053 33.5379 23.9839 34.2177C24.6791 34.7557 25.4419 35.1359 26.3205 35.2357C26.7486 35.2841 27.1798 35.2744 27.6111 35.2808C28.2451 35.2937 28.8824 35.2647 29.5132 35.3163C30.379 35.3904 31.071 36.228 30.9647 37.0012C30.9519 37.0979 30.9165 37.1881 30.8875 37.2815C30.8328 37.4587 30.7234 37.5263 30.527 37.5263C29.5583 37.5263 28.5895 37.5167 27.624 37.5585C26.7196 37.5972 25.9311 37.987 25.2134 38.5154C25.0299 38.6507 24.9945 38.8988 25.104 39.0856C25.2198 39.2821 25.4644 39.3595 25.6768 39.2531C25.7798 39.2048 25.8699 39.1339 25.9633 39.0695C26.6198 38.6152 27.3472 38.4058 28.1422 38.4058C29.4778 38.4058 30.8103 38.4058 32.1459 38.3865C32.4163 38.3833 32.6898 38.2995 32.9505 38.2126C35.5929 37.3363 38.232 36.4503 40.8711 35.5708C41.5052 35.3582 42.0394 35.7286 41.9976 36.3504C41.9751 36.6565 41.7948 36.853 41.547 37.0044C39.9346 37.9838 38.3253 38.9664 36.7161 39.9458C35.6251 40.6095 34.534 41.2667 33.4494 41.94C32.9022 42.2815 32.3197 42.4458 31.6728 42.4426C28.2226 42.4329 24.7724 42.4394 21.3223 42.4394H21.0229V42.4426Z" fill="white"/>
<defs>
<linearGradient id="paint0_linear_302_442" x1="30" y1="0" x2="30" y2="60" gradientUnits="userSpaceOnUse">
<stop stop-color="#FFC29F"/>
<stop offset="1" stop-color="#E35606"/>
</linearGradient>
</defs>
</svg>
