<svg width="20" height="21" viewBox="0 0 20 21" fill="none" xmlns="http://www.w3.org/2000/svg">
<path d="M9.999 0.349609C4.477 0.349609 0 4.82661 0 10.3486C0 15.3386 3.656 19.4746 8.437 20.2276V13.2396H5.897V10.3486H8.437V8.14561C8.437 5.63761 9.93 4.25461 12.213 4.25461C13.307 4.25461 14.453 4.44961 14.453 4.44961V6.90861H13.189C11.949 6.90861 11.561 7.68061 11.561 8.47161V10.3466H14.332L13.889 13.2376H11.561V20.2256C16.342 19.4766 19.998 15.3396 19.998 10.3486C19.998 4.82661 15.521 0.349609 9.999 0.349609V0.349609Z" fill="white"/>
</svg>
