<svg width="20" height="21" viewBox="0 0 20 21" fill="none" xmlns="http://www.w3.org/2000/svg">
<path d="M9.9975 7.01486C8.16126 7.01486 6.66275 8.51337 6.66275 10.3496C6.66275 12.1858 8.16126 13.6844 9.9975 13.6844C11.8337 13.6844 13.3323 12.1858 13.3323 10.3496C13.3323 8.51337 11.8337 7.01486 9.9975 7.01486ZM19.9993 10.3496C19.9993 8.96868 20.0118 7.60025 19.9342 6.22182C19.8567 4.62074 19.4914 3.19978 18.3206 2.02899C17.1473 0.855695 15.7289 0.49295 14.1278 0.415397C12.7469 0.337845 11.3784 0.350353 10 0.350353C8.61907 0.350353 7.25064 0.337845 5.87221 0.415397C4.27113 0.49295 2.85017 0.858196 1.67938 2.02899C0.506086 3.20228 0.14334 4.62074 0.065788 6.22182C-0.0117644 7.60275 0.000744113 8.97118 0.000744113 10.3496C0.000744113 11.728 -0.0117644 13.099 0.065788 14.4774C0.14334 16.0785 0.508587 17.4994 1.67938 18.6702C2.85267 19.8435 4.27113 20.2063 5.87221 20.2838C7.25314 20.3614 8.62157 20.3489 10 20.3489C11.3809 20.3489 12.7494 20.3614 14.1278 20.2838C15.7289 20.2063 17.1498 19.841 18.3206 18.6702C19.4939 17.4969 19.8567 16.0785 19.9342 14.4774C20.0143 13.099 19.9993 11.7305 19.9993 10.3496V10.3496ZM9.9975 15.4806C7.15808 15.4806 4.86653 13.189 4.86653 10.3496C4.86653 7.51019 7.15808 5.21864 9.9975 5.21864C12.8369 5.21864 15.1285 7.51019 15.1285 10.3496C15.1285 13.189 12.8369 15.4806 9.9975 15.4806ZM15.3386 6.20681C14.6757 6.20681 14.1403 5.67145 14.1403 5.0085C14.1403 4.34555 14.6757 3.81019 15.3386 3.81019C16.0016 3.81019 16.5369 4.34555 16.5369 5.0085C16.5371 5.16592 16.5063 5.32183 16.4461 5.46731C16.386 5.61278 16.2977 5.74496 16.1864 5.85627C16.0751 5.96759 15.9429 6.05585 15.7974 6.116C15.6519 6.17615 15.496 6.20701 15.3386 6.20681V6.20681Z" fill="white"/>
</svg>
