<svg xmlns="http://www.w3.org/2000/svg" version="1.1" xmlns:xlink="http://www.w3.org/1999/xlink" xmlns:svgjs="http://svgjs.com/svgjs" width="24" x="0" y="0" viewBox="0 0 152 152" style="enable-background:new 0 0 512 512" xml:space="preserve" class=""><g><g id="Layer_2" data-name="Layer 2"><g id="_10.linkedin" data-name="10.linkedin"><circle id="background" cx="76" cy="76" fill="#ffffff" r="76" data-original="#0b69c7" class=""></circle><g id="icon" fill="#fff"><path d="m59 48.37a10.38 10.38 0 1 1 -10.37-10.37 10.38 10.38 0 0 1 10.37 10.37z" fill="#7d7d7d" data-original="#ffffff" class=""></path><rect height="50.93" rx="2.57" width="16.06" x="40.6" y="63.07" fill="#7d7d7d" data-original="#ffffff" class=""></rect><path d="m113.75 89.47v22.17a2.36 2.36 0 0 1 -2.36 2.36h-11.72a2.36 2.36 0 0 1 -2.36-2.36v-21.48c0-3.21.93-14-8.38-14-7.22 0-8.69 7.42-9 10.75v24.78a2.36 2.36 0 0 1 -2.34 2.31h-11.34a2.35 2.35 0 0 1 -2.36-2.36v-46.2a2.36 2.36 0 0 1 2.36-2.37h11.34a2.37 2.37 0 0 1 2.41 2.37v4c2.68-4 6.66-7.12 15.13-7.12 18.73-.01 18.62 17.52 18.62 27.15z" fill="#7d7d7d" data-original="#ffffff" class=""></path></g></g></g></g></svg>
