<svg width="25" height="21" viewBox="0 0 25 21" fill="none" xmlns="http://www.w3.org/2000/svg">
<path d="M24.6183 2.72536C23.713 3.11589 22.7278 3.39696 21.713 3.50642C22.7666 2.8805 23.5556 1.89163 23.9319 0.725361C22.9433 1.31349 21.8602 1.7259 20.7308 1.9443C20.2587 1.43964 19.6878 1.03761 19.0535 0.763253C18.4193 0.488897 17.7354 0.348095 17.0444 0.349622C14.2485 0.349622 12 2.61589 12 5.39696C12 5.78749 12.0473 6.17802 12.1243 6.55376C7.93786 6.33483 4.20414 4.33483 1.72189 1.2727C1.2696 2.04523 1.03258 2.92484 1.0355 3.82003C1.0355 5.57151 1.92603 7.11589 3.28402 8.02417C2.48374 7.99266 1.7022 7.77269 1.00296 7.38216V7.44429C1.00296 9.89695 2.73668 11.9295 5.04733 12.397C4.61348 12.5096 4.16718 12.5673 3.71893 12.5685C3.39053 12.5685 3.07988 12.536 2.76627 12.4916C3.40532 14.4916 5.26627 15.9443 7.48224 15.9916C5.74852 17.3496 3.57692 18.1484 1.21893 18.1484C0.795858 18.1484 0.405325 18.1336 0 18.0863C2.23668 19.5212 4.89053 20.3496 7.74852 20.3496C17.0266 20.3496 22.1035 12.6632 22.1035 5.99163C22.1035 5.7727 22.1035 5.55376 22.0887 5.33483C23.071 4.61589 23.9319 3.72536 24.6183 2.72536Z" fill="white"/>
</svg>
