<svg width="18" height="18" viewBox="0 0 18 18" fill="none" xmlns="http://www.w3.org/2000/svg">
<rect width="18" height="18" rx="9" fill="#1A7171"/>
<path d="M6.76707 9.13562C7.07714 8.81921 6.85297 8.28566 6.40995 8.28566H5.57717C5.57371 8.28566 5.57103 8.28267 5.5714 8.27923V8.27923C5.6628 7.82253 5.84169 7.38874 6.0978 7.00277C6.47892 6.42976 7.0135 5.98071 7.6378 5.70915C7.8492 5.61772 8.0697 5.54772 8.2944 5.50129C8.76052 5.40486 9.24087 5.40486 9.707 5.50129C10.211 5.60668 10.6838 5.82417 11.0927 6.13582C11.3154 6.30559 11.6358 6.30938 11.8321 6.10963L12.1218 5.81478C12.3128 5.62046 12.3146 5.30676 12.1056 5.13192C11.7439 4.82919 11.341 4.58007 10.9089 4.39268C10.6123 4.26456 10.304 4.16693 9.9884 4.10125C9.33729 3.96625 8.66622 3.96625 8.0151 4.10125C7.6993 4.1672 7.39071 4.26507 7.0939 4.3934C6.21927 4.77206 5.47055 5.40064 4.9379 6.20346C4.57942 6.7448 4.32873 7.35277 4.2001 7.9928V7.9928C4.16624 8.15937 4.02976 8.28566 3.85978 8.28566H3.19005C2.74703 8.28566 2.52286 8.81921 2.83293 9.13562L4.44289 10.7785C4.63894 10.9785 4.96106 10.9785 5.15711 10.7785L6.76707 9.13562ZM11.2329 8.86432C10.9229 9.18073 11.147 9.71428 11.59 9.71428H12.4235C12.4266 9.71428 12.429 9.71696 12.4286 9.71999V9.71999C12.2457 10.6356 11.7169 11.4408 10.9565 11.9615C10.5784 12.2231 10.1532 12.4056 9.7056 12.4987C9.23971 12.5951 8.75959 12.5951 8.2937 12.4987C7.84614 12.4054 7.42104 12.2228 7.0428 11.9615C6.99661 11.9296 6.95119 11.8966 6.90656 11.8626C6.68404 11.6929 6.36403 11.6898 6.16816 11.8897L5.87804 12.1857C5.68748 12.3802 5.68598 12.6936 5.89483 12.8683C6.25688 13.171 6.66006 13.4201 7.0925 13.6073C7.3893 13.7358 7.6994 13.8337 8.013 13.8987C8.66387 14.0338 9.33473 14.0338 9.9856 13.8987C11.2404 13.6329 12.3441 12.8782 13.0621 11.7951C13.4202 11.2541 13.6707 10.6466 13.7992 10.0071V10.0071C13.8319 9.84035 13.9695 9.71428 14.1395 9.71428H14.81C15.253 9.71428 15.4771 9.18073 15.1671 8.86432L13.5571 7.22146C13.3611 7.0214 13.0389 7.0214 12.8429 7.22146L11.2329 8.86432Z" fill="white"/>
</svg>
