<svg width="28" height="22" viewBox="0 0 28 22" fill="none" xmlns="http://www.w3.org/2000/svg">
<path d="M9.38663 13.2001H15.8866C17.5168 13.2001 19.0803 12.5525 20.233 11.3998C21.3857 10.247 22.0333 8.6836 22.0333 7.05341C22.0333 5.42321 21.3857 3.85978 20.233 2.70706C19.0803 1.55433 17.5168 0.906738 15.8866 0.906738H7.00663C5.46086 0.913348 3.97433 1.50213 2.84326 2.55575C1.7122 3.60937 1.01964 5.05048 0.903587 6.59189C0.787539 8.13331 1.25653 9.66187 2.21709 10.873C3.17766 12.0841 4.55927 12.8888 6.08663 13.1267V16.0467L9.38663 13.2001ZM15.52 6.14674C15.7874 6.16793 16.0371 6.28915 16.2192 6.48623C16.4012 6.6833 16.5024 6.94176 16.5024 7.21007C16.5024 7.47838 16.4012 7.73684 16.2192 7.93392C16.0371 8.13099 15.7874 8.25221 15.52 8.27341C15.4601 8.28007 15.3998 8.28007 15.34 8.27341C15.0579 8.24954 14.797 8.11461 14.6144 7.89832C14.4319 7.68203 14.3428 7.40209 14.3666 7.12007C14.3905 6.83806 14.5254 6.57708 14.7417 6.39454C14.958 6.21201 15.2379 6.12287 15.52 6.14674V6.14674ZM10.5266 7.20007C10.5279 6.98911 10.5918 6.78328 10.7101 6.60861C10.8284 6.43393 10.9958 6.29826 11.1913 6.21875C11.3867 6.13924 11.6013 6.11946 11.8079 6.16191C12.0146 6.20436 12.204 6.30714 12.3522 6.45724C12.5005 6.60734 12.6009 6.79804 12.6407 7.0052C12.6806 7.21236 12.6581 7.4267 12.5762 7.6211C12.4942 7.8155 12.3565 7.98123 12.1803 8.09734C12.0042 8.21345 11.7976 8.27472 11.5866 8.27341C11.4465 8.27253 11.308 8.24408 11.1789 8.18967C11.0499 8.13525 10.9328 8.05595 10.8343 7.95628C10.7359 7.85661 10.6581 7.73853 10.6053 7.60878C10.5525 7.47903 10.5257 7.34015 10.5266 7.20007V7.20007ZM7.65996 6.14674C7.92743 6.16793 8.17709 6.28915 8.35917 6.48623C8.54125 6.6833 8.64236 6.94176 8.64236 7.21007C8.64236 7.47838 8.54125 7.73684 8.35917 7.93392C8.17709 8.13099 7.92743 8.25221 7.65996 8.27341C7.60237 8.28007 7.54421 8.28007 7.48663 8.27341C7.20461 8.25042 6.94328 8.11635 6.76012 7.90068C6.57696 7.68501 6.48697 7.40542 6.50996 7.12341C6.53294 6.84139 6.66702 6.58006 6.88268 6.3969C7.09835 6.21374 7.37795 6.12375 7.65996 6.14674V6.14674Z" stroke="#334257" stroke-linecap="round" stroke-linejoin="round"/>
<path d="M7.19336 15.1133C7.70495 15.9981 8.43952 16.7333 9.32384 17.2456C10.2082 17.758 11.2113 18.0296 12.2334 18.0333H18.8067L21.7334 20.52V17.96C22.9138 17.8227 24.0243 17.3286 24.9165 16.5436C25.8088 15.7586 26.4403 14.72 26.7267 13.5666C27.5067 10.4333 25.3 6.89998 22.06 6.47998" stroke="#334257" stroke-linecap="round" stroke-linejoin="round"/>
</svg>
