<svg width="26" height="26" viewBox="0 0 26 26" fill="none" xmlns="http://www.w3.org/2000/svg">
<path d="M3.625 16.125H8.3125C8.7269 16.125 9.12433 16.2896 9.41735 16.5826C9.71038 16.8757 9.875 17.2731 9.875 17.6875V22.375C9.875 22.7894 9.71038 23.1868 9.41735 23.4799C9.12433 23.7729 8.7269 23.9375 8.3125 23.9375H3.625C3.2106 23.9375 2.81317 23.7729 2.52015 23.4799C2.22712 23.1868 2.0625 22.7894 2.0625 22.375V17.6875C2.0625 17.2731 2.22712 16.8757 2.52015 16.5826C2.81317 16.2896 3.2106 16.125 3.625 16.125ZM17.6875 2.0625H22.375C22.7894 2.0625 23.1868 2.22712 23.4799 2.52015C23.7729 2.81317 23.9375 3.2106 23.9375 3.625V8.3125C23.9375 8.7269 23.7729 9.12433 23.4799 9.41735C23.1868 9.71038 22.7894 9.875 22.375 9.875H17.6875C17.2731 9.875 16.8757 9.71038 16.5826 9.41735C16.2896 9.12433 16.125 8.7269 16.125 8.3125V3.625C16.125 3.2106 16.2896 2.81317 16.5826 2.52015C16.8757 2.22712 17.2731 2.0625 17.6875 2.0625ZM17.6875 16.125C17.2731 16.125 16.8757 16.2896 16.5826 16.5826C16.2896 16.8757 16.125 17.2731 16.125 17.6875V22.375C16.125 22.7894 16.2896 23.1868 16.5826 23.4799C16.8757 23.7729 17.2731 23.9375 17.6875 23.9375H22.375C22.7894 23.9375 23.1868 23.7729 23.4799 23.4799C23.7729 23.1868 23.9375 22.7894 23.9375 22.375V17.6875C23.9375 17.2731 23.7729 16.8757 23.4799 16.5826C23.1868 16.2896 22.7894 16.125 22.375 16.125H17.6875ZM17.6875 0.5C16.8587 0.5 16.0638 0.82924 15.4778 1.41529C14.8917 2.00134 14.5625 2.7962 14.5625 3.625V8.3125C14.5625 9.1413 14.8917 9.93616 15.4778 10.5222C16.0638 11.1083 16.8587 11.4375 17.6875 11.4375H22.375C23.2038 11.4375 23.9987 11.1083 24.5847 10.5222C25.1708 9.93616 25.5 9.1413 25.5 8.3125V3.625C25.5 2.7962 25.1708 2.00134 24.5847 1.41529C23.9987 0.82924 23.2038 0.5 22.375 0.5L17.6875 0.5ZM3.625 14.5625C2.7962 14.5625 2.00134 14.8917 1.41529 15.4778C0.82924 16.0638 0.5 16.8587 0.5 17.6875L0.5 22.375C0.5 23.2038 0.82924 23.9987 1.41529 24.5847C2.00134 25.1708 2.7962 25.5 3.625 25.5H8.3125C9.1413 25.5 9.93616 25.1708 10.5222 24.5847C11.1083 23.9987 11.4375 23.2038 11.4375 22.375V17.6875C11.4375 16.8587 11.1083 16.0638 10.5222 15.4778C9.93616 14.8917 9.1413 14.5625 8.3125 14.5625H3.625ZM14.5625 17.6875C14.5625 16.8587 14.8917 16.0638 15.4778 15.4778C16.0638 14.8917 16.8587 14.5625 17.6875 14.5625H22.375C23.2038 14.5625 23.9987 14.8917 24.5847 15.4778C25.1708 16.0638 25.5 16.8587 25.5 17.6875V22.375C25.5 23.2038 25.1708 23.9987 24.5847 24.5847C23.9987 25.1708 23.2038 25.5 22.375 25.5H17.6875C16.8587 25.5 16.0638 25.1708 15.4778 24.5847C14.8917 23.9987 14.5625 23.2038 14.5625 22.375V17.6875ZM0.5 3.625C0.5 2.7962 0.82924 2.00134 1.41529 1.41529C2.00134 0.82924 2.7962 0.5 3.625 0.5L8.3125 0.5C9.1413 0.5 9.93616 0.82924 10.5222 1.41529C11.1083 2.00134 11.4375 2.7962 11.4375 3.625V8.3125C11.4375 9.1413 11.1083 9.93616 10.5222 10.5222C9.93616 11.1083 9.1413 11.4375 8.3125 11.4375H3.625C2.7962 11.4375 2.00134 11.1083 1.41529 10.5222C0.82924 9.93616 0.5 9.1413 0.5 8.3125V3.625ZM8.86563 4.95938C8.93826 4.88674 8.99588 4.8005 9.03519 4.7056C9.0745 4.61069 9.09474 4.50898 9.09474 4.40625C9.09474 4.30353 9.0745 4.20181 9.03519 4.1069C8.99588 4.012 8.93826 3.92576 8.86563 3.85312C8.79299 3.78049 8.70675 3.72287 8.61185 3.68356C8.51694 3.64425 8.41523 3.62401 8.3125 3.62401C8.20977 3.62401 8.10806 3.64425 8.01315 3.68356C7.91825 3.72287 7.83201 3.78049 7.75937 3.85312L5.1875 6.42656L4.17813 5.41562C4.10549 5.34299 4.01925 5.28537 3.92435 5.24606C3.82944 5.20675 3.72772 5.18651 3.625 5.18651C3.52228 5.18651 3.42056 5.20675 3.32565 5.24606C3.23075 5.28537 3.14451 5.34299 3.07188 5.41562C2.99924 5.48826 2.94162 5.5745 2.90231 5.6694C2.863 5.76431 2.84276 5.86602 2.84276 5.96875C2.84276 6.07148 2.863 6.17319 2.90231 6.2681C2.94162 6.363 2.99924 6.44924 3.07188 6.52188L4.63437 8.08438C4.70695 8.15713 4.79316 8.21485 4.88807 8.25424C4.98299 8.29362 5.08474 8.3139 5.1875 8.3139C5.29026 8.3139 5.39201 8.29362 5.48693 8.25424C5.58184 8.21485 5.66805 8.15713 5.74063 8.08438L8.86563 4.95938Z" fill="white"/>
</svg>
