<svg width="16" height="16" viewBox="0 0 16 16" fill="none" xmlns="http://www.w3.org/2000/svg">
<path d="M8.0001 5.18768C7.25418 5.18768 6.53881 5.484 6.01136 6.01144C5.48391 6.53889 5.1876 7.25426 5.1876 8.00018C5.1876 8.7461 5.48391 9.46147 6.01136 9.98892C6.53881 10.5164 7.25418 10.8127 8.0001 10.8127C8.74602 10.8127 9.46139 10.5164 9.98884 9.98892C10.5163 9.46147 10.8126 8.7461 10.8126 8.00018C10.8126 7.25426 10.5163 6.53889 9.98884 6.01144C9.46139 5.484 8.74602 5.18768 8.0001 5.18768ZM6.3126 8.00018C6.3126 7.55263 6.49039 7.1234 6.80686 6.80694C7.12332 6.49047 7.55255 6.31268 8.0001 6.31268C8.44765 6.31268 8.87687 6.49047 9.19334 6.80694C9.50981 7.1234 9.6876 7.55263 9.6876 8.00018C9.6876 8.44773 9.50981 8.87696 9.19334 9.19342C8.87687 9.50989 8.44765 9.68768 8.0001 9.68768C7.55255 9.68768 7.12332 9.50989 6.80686 9.19342C6.49039 8.87696 6.3126 8.44773 6.3126 8.00018ZM6.2226 15.6659C6.80479 15.8049 7.4016 15.8752 8.0001 15.8752C8.59805 15.8743 9.19384 15.8035 9.77535 15.6642C9.94243 15.6249 10.0932 15.5347 10.207 15.4062C10.3209 15.2777 10.3921 15.1171 10.411 14.9465L10.5426 13.7484C10.5553 13.6177 10.5989 13.4919 10.6699 13.3814C10.7408 13.2709 10.837 13.1788 10.9506 13.1129C11.0641 13.0469 11.1917 13.0089 11.3229 13.0021C11.454 12.9952 11.5849 13.0196 11.7047 13.0734L12.8044 13.5549C12.9618 13.6242 13.1369 13.6427 13.3054 13.6079C13.4738 13.5731 13.6272 13.4868 13.7443 13.3608C14.5569 12.4853 15.1634 11.4392 15.5196 10.2991C15.5707 10.1342 15.5691 9.95749 15.5152 9.79349C15.4613 9.62949 15.3576 9.48635 15.2187 9.38393L14.2461 8.66674C14.1399 8.58933 14.0535 8.48788 13.994 8.37069C13.9344 8.25349 13.9035 8.12388 13.9037 7.99244C13.9038 7.861 13.9351 7.73146 13.9949 7.61441C14.0547 7.49737 14.1414 7.39614 14.2478 7.31899L15.2153 6.60462C15.3551 6.50246 15.4593 6.35911 15.5135 6.19467C15.5677 6.03024 15.569 5.85298 15.5173 5.68774C15.1618 4.54721 14.555 3.50096 13.7415 2.62605C13.6239 2.5003 13.4702 2.41411 13.3016 2.37936C13.1329 2.3446 12.9577 2.36299 12.7999 2.43199L11.7053 2.91349C11.5853 2.96579 11.4547 2.98913 11.324 2.98161C11.1934 2.97409 11.0663 2.93594 10.9531 2.87022C10.8399 2.80451 10.7438 2.71309 10.6725 2.60334C10.6012 2.4936 10.5567 2.36861 10.5426 2.23849L10.4098 1.04599C10.3913 0.873336 10.3191 0.710846 10.2033 0.581387C10.0876 0.451928 9.93417 0.362016 9.76466 0.324305C9.18705 0.195238 8.59754 0.126805 8.00572 0.120117C7.4104 0.127166 6.81739 0.195591 6.2361 0.324305C6.06657 0.361372 5.91302 0.450868 5.79722 0.580101C5.68141 0.709334 5.60923 0.871746 5.59091 1.0443L5.4576 2.23793C5.44304 2.36825 5.39816 2.49335 5.32656 2.60321C5.25496 2.71306 5.15863 2.80463 5.04529 2.87057C4.93194 2.93651 4.80473 2.97499 4.67384 2.98293C4.54295 2.99088 4.41202 2.96806 4.29154 2.9163L3.19691 2.43424C3.03897 2.36716 2.86427 2.35007 2.69633 2.38526C2.52838 2.42046 2.37525 2.50626 2.25754 2.63112C1.44396 3.50688 0.836621 4.55357 0.480036 5.69449C0.429284 5.8593 0.431039 6.03582 0.485058 6.19959C0.539077 6.36336 0.642686 6.50628 0.781536 6.60855L1.75185 7.32405C1.85755 7.40183 1.94348 7.50337 2.0027 7.62048C2.06192 7.73759 2.09278 7.86698 2.09278 7.99821C2.09278 8.12944 2.06192 8.25883 2.0027 8.37594C1.94348 8.49305 1.85755 8.59459 1.75185 8.67237L0.781536 9.38955C0.642161 9.49203 0.538251 9.63546 0.484303 9.79982C0.430355 9.96419 0.42906 10.1413 0.480598 10.3064C0.837019 11.4481 1.44435 12.4956 2.2581 13.3721C2.33546 13.4552 2.42925 13.5214 2.53354 13.5665C2.63782 13.6115 2.75032 13.6343 2.86391 13.6336C2.9781 13.6336 3.09116 13.61 3.19635 13.5644L4.29604 13.0812C4.41598 13.0294 4.54641 13.0065 4.67684 13.0142C4.80727 13.0219 4.93407 13.0602 5.04704 13.1258C5.16001 13.1915 5.256 13.2827 5.32731 13.3922C5.39861 13.5017 5.44324 13.6264 5.4576 13.7562L5.58979 14.9521C5.60898 15.1218 5.68005 15.2815 5.79329 15.4093C5.90654 15.5372 6.05645 15.627 6.2226 15.6665V15.6659ZM9.31691 14.6163C8.44901 14.7943 7.554 14.7943 6.6861 14.6163L6.57641 13.6376C6.52279 13.1587 6.29447 12.7165 5.93516 12.3956C5.65384 12.1478 5.30822 11.9847 4.93818 11.925C4.56813 11.8653 4.18874 11.9114 3.84379 12.0581L2.94041 12.4518C2.35766 11.7845 1.9092 11.011 1.61966 10.1737L2.42066 9.58193C2.66813 9.39958 2.86929 9.16163 3.00792 8.88728C3.14655 8.61292 3.21878 8.30982 3.21878 8.00243C3.21878 7.69503 3.14655 7.39194 3.00792 7.11758C2.86929 6.84323 2.66813 6.60528 2.42066 6.42293L1.62135 5.83287C1.91123 4.9964 2.35966 4.22368 2.9421 3.55699L3.8421 3.95074C4.09016 4.06028 4.35843 4.11662 4.6296 4.11612C5.1125 4.1146 5.578 3.93566 5.93757 3.61332C6.29714 3.29098 6.5257 2.84773 6.57979 2.36787L6.68891 1.38518C7.12429 1.3008 7.56641 1.2558 8.0091 1.25018C8.44897 1.2558 8.88772 1.3008 9.31972 1.38518L9.42435 2.36393C9.47645 2.8441 9.70424 3.28806 10.0639 3.61043C10.3454 3.85965 10.692 4.02371 11.0631 4.08347C11.4343 4.14322 11.8149 4.09622 12.1603 3.94793L13.0603 3.55418C13.6436 4.22068 14.0925 4.99368 14.3822 5.83062L13.5818 6.41899C13.333 6.60071 13.1307 6.83857 12.9912 7.11322C12.8517 7.38787 12.779 7.69157 12.779 7.99962C12.779 8.30766 12.8517 8.61136 12.9912 8.88601C13.1307 9.16067 13.333 9.39852 13.5818 9.58024L14.3817 10.1709C14.0916 11.0062 13.6438 11.7781 13.0626 12.4445L12.1626 12.0507C11.881 11.9254 11.5737 11.8685 11.2658 11.8847C10.958 11.9009 10.6583 11.9897 10.3914 12.1438C10.1244 12.298 9.89777 12.5131 9.72989 12.7717C9.56201 13.0302 9.45769 13.3248 9.42547 13.6314L9.31691 14.6157V14.6163Z" fill="#006161"/>
</svg>
