<svg width="18" height="18" viewBox="0 0 18 18" fill="none" xmlns="http://www.w3.org/2000/svg">
<path d="M9 3C8.20435 3 7.44129 3.31607 6.87868 3.87868C6.31607 4.44129 6 5.20435 6 6C6 6.79565 6.31607 7.55871 6.87868 8.12132C7.44129 8.68393 8.20435 9 9 9C9.79565 9 10.5587 8.68393 11.1213 8.12132C11.6839 7.55871 12 6.79565 12 6C12 5.20435 11.6839 4.44129 11.1213 3.87868C10.5587 3.31607 9.79565 3 9 3ZM4.5 6C4.5 4.80653 4.97411 3.66193 5.81802 2.81802C6.66193 1.97411 7.80653 1.5 9 1.5C10.1935 1.5 11.3381 1.97411 12.182 2.81802C13.0259 3.66193 13.5 4.80653 13.5 6C13.5 7.19347 13.0259 8.33807 12.182 9.18198C11.3381 10.0259 10.1935 10.5 9 10.5C7.80653 10.5 6.66193 10.0259 5.81802 9.18198C4.97411 8.33807 4.5 7.19347 4.5 6ZM6 13.5C5.40326 13.5 4.83097 13.7371 4.40901 14.159C3.98705 14.581 3.75 15.1533 3.75 15.75C3.75 15.9489 3.67098 16.1397 3.53033 16.2803C3.38968 16.421 3.19891 16.5 3 16.5C2.80109 16.5 2.61032 16.421 2.46967 16.2803C2.32902 16.1397 2.25 15.9489 2.25 15.75C2.25 14.7554 2.64509 13.8016 3.34835 13.0983C4.05161 12.3951 5.00544 12 6 12H12C12.9946 12 13.9484 12.3951 14.6517 13.0983C15.3549 13.8016 15.75 14.7554 15.75 15.75C15.75 15.9489 15.671 16.1397 15.5303 16.2803C15.3897 16.421 15.1989 16.5 15 16.5C14.8011 16.5 14.6103 16.421 14.4697 16.2803C14.329 16.1397 14.25 15.9489 14.25 15.75C14.25 15.1533 14.0129 14.581 13.591 14.159C13.169 13.7371 12.5967 13.5 12 13.5H6Z" fill="#006161"/>
</svg>
