<svg width="165" height="57" viewBox="0 0 165 57" fill="none" xmlns="http://www.w3.org/2000/svg">
<path d="M129.754 45.6576V43.1884C129.754 42.5051 129.502 41.9188 128.998 41.4297C128.502 40.9405 127.912 40.6959 127.227 40.6959H124.7C123.212 40.6959 122.378 41.5267 122.197 43.1884H119.67C120.056 39.8651 121.733 38.2034 124.7 38.2034H129.754C131.131 38.2034 132.312 38.6965 133.296 39.6826C134.288 40.661 134.784 41.8296 134.784 43.1884V55.6043H129.754V53.1118C129.557 54.7734 128.715 55.6043 127.227 55.6043H124.7C123.323 55.6043 122.138 55.119 121.146 54.1484C120.162 53.17 119.67 52.0014 119.67 50.6426V50.6193C119.67 49.2604 120.166 48.0957 121.158 47.1251C122.15 46.1468 123.331 45.6576 124.7 45.6576H129.754ZM129.754 48.1501H127.227C126.534 48.1501 125.94 48.3947 125.444 48.8839C124.948 49.3653 124.7 49.9438 124.7 50.6193V50.6426C124.7 51.3104 124.944 51.8888 125.432 52.378C125.928 52.8672 126.526 53.1118 127.227 53.1118C127.928 53.1118 128.522 52.8672 129.01 52.378C129.506 51.8888 129.754 51.3104 129.754 50.6426V48.1501Z" fill="#2F3C2C"/>
<path d="M144.832 55.6043H139.802V38.2034H144.832V43.1884C145.029 41.5267 145.549 40.2805 146.391 39.4496C147.233 38.6188 148.398 38.2034 149.886 38.2034H152.389V43.1884H147.359C146.666 43.1884 146.072 43.433 145.576 43.9222C145.08 44.4036 144.832 44.9821 144.832 45.6576V55.6043Z" fill="#2F3C2C"/>
<path d="M157.443 33.2417H162.473V38.2034H165V40.6959H162.473V50.6426C162.473 51.4424 162.741 52.0558 163.276 52.4828C163.811 52.9021 164.307 53.1118 164.764 53.1118H165V55.6043H162.473C161.087 55.6043 159.903 55.119 158.919 54.1484C157.935 53.17 157.443 52.0014 157.443 50.6426V40.6959H154.916V38.2034H157.443V33.2417Z" fill="#2F3C2C"/>
<path fill-rule="evenodd" clip-rule="evenodd" d="M156.639 33.2417H162.449V38.3095H165V41.5859H162.449V51.38C162.449 52.1077 162.684 52.6204 163.122 52.9746C163.628 53.3752 164.05 53.5367 164.395 53.5367H165V56.8131H162.083C160.587 56.8131 159.298 56.2786 158.236 55.219L158.235 55.218C157.175 54.1514 156.639 52.8658 156.639 51.38V41.5859H154.088V38.3095H156.639V33.2417ZM157.371 33.9723V39.0401H154.82V40.8553H157.371V51.38C157.371 52.6696 157.828 53.771 158.754 54.7028C159.679 55.6257 160.782 56.0825 162.083 56.0825H164.268V54.2629C163.734 54.2269 163.198 53.9672 162.666 53.5456L162.664 53.5446L162.663 53.5436C162.021 53.0254 161.717 52.2853 161.717 51.38V40.8553H164.268V39.0401H161.717V33.9723H157.371ZM119.29 43.4011H121.103C121.227 42.6536 121.494 42.0411 121.932 41.5999C122.438 41.0897 123.127 40.8553 123.95 40.8553H126.501C127.291 40.8553 127.979 41.1451 128.547 41.7108C129.123 42.2773 129.418 42.9689 129.418 43.7664V46.6537H123.95C122.667 46.6537 121.567 47.113 120.633 48.0456L120.632 48.0466C119.698 48.9705 119.238 50.0672 119.238 51.3562V51.38C119.238 52.6694 119.695 53.7706 120.621 54.7023C121.554 55.6263 122.658 56.0825 123.95 56.0825H126.501C127.18 56.0825 127.666 55.8927 128.006 55.553C128.353 55.2071 128.594 54.6603 128.688 53.8596L129.418 53.902V56.0825H133.764V43.7664C133.764 42.4773 133.303 41.3761 132.369 40.4439L132.368 40.4429L132.367 40.4419C131.441 39.503 130.342 39.0401 129.052 39.0401H123.95C122.524 39.0401 121.454 39.4419 120.693 40.2054C119.99 40.9105 119.511 41.9621 119.29 43.4011ZM120.174 39.69C121.105 38.7563 122.38 38.3095 123.95 38.3095H129.052C130.542 38.3095 131.827 38.8535 132.888 39.9284C133.956 40.9946 134.496 42.2801 134.496 43.7664V56.8131H128.686V55.8913C128.634 55.9535 128.581 56.013 128.524 56.0696C128.014 56.5786 127.323 56.8131 126.501 56.8131H123.95C122.461 56.8131 121.173 56.2782 120.104 55.2201L120.103 55.219L120.102 55.218C119.042 54.1514 118.506 52.8658 118.506 51.38V51.3562C118.506 49.8696 119.046 48.5872 120.115 47.5285C121.183 46.4629 122.468 45.9231 123.95 45.9231H128.686V43.7664C128.686 43.1686 128.472 42.6629 128.032 42.2304L128.031 42.2294L128.03 42.2284C127.596 41.7954 127.092 41.5859 126.501 41.5859H123.95C123.27 41.5859 122.788 41.7757 122.452 42.1141C122.109 42.459 121.873 43.0047 121.787 43.8054L121.752 44.1317H118.461L118.508 43.7248C118.708 41.9799 119.249 40.6172 120.174 39.69ZM138.83 38.3095H144.64V41.0388C144.894 40.5188 145.209 40.0678 145.589 39.6894C146.524 38.7561 147.802 38.3095 149.376 38.3095H152.269V44.1317H146.825C146.224 44.1317 145.717 44.3421 145.284 44.7742L145.283 44.7752L145.282 44.7762C144.85 45.2005 144.64 45.698 144.64 46.2884V56.8131H138.83V38.3095ZM139.562 39.0401V56.0825H143.908V46.2884C143.908 45.4992 144.198 44.8154 144.767 44.2564C145.335 43.69 146.028 43.4011 146.825 43.4011H151.537V39.0401H149.376C147.945 39.0401 146.872 39.442 146.106 40.206C145.334 40.9763 144.831 42.1595 144.637 43.8088L143.908 43.7664V39.0401H139.562ZM124.443 49.3242C125.011 48.7578 125.704 48.4689 126.501 48.4689H129.418V51.38C129.418 52.1623 129.126 52.8447 128.56 53.4099C127.999 53.9791 127.305 54.2673 126.501 54.2673C125.696 54.2673 124.999 53.9789 124.43 53.4108L124.429 53.4098L124.428 53.4087C123.87 52.8429 123.584 52.1608 123.584 51.38V51.3562C123.584 50.567 123.874 49.8832 124.443 49.3242ZM126.501 49.1995C125.9 49.1995 125.393 49.4099 124.96 49.8419L124.959 49.843L124.958 49.844C124.526 50.2683 124.316 50.7658 124.316 51.3562V51.38C124.316 51.9628 124.522 52.4621 124.949 52.8953C125.381 53.3258 125.891 53.5367 126.501 53.5367C127.111 53.5367 127.616 53.3256 128.04 52.8963L128.041 52.8952L128.042 52.8942C128.477 52.4603 128.686 51.9613 128.686 51.38V49.1995H126.501Z" fill="white"/>
<path d="M74.2353 12.0879L70.7139 56.8131H116.648L112.542 12.0879H74.2353Z" fill="#039D55"/>
<path d="M81.4267 28.4065H86.5238L92.1306 45.7612C92.4138 46.5959 92.6828 47.4161 92.9377 48.222C93.1925 48.9991 93.4332 49.7905 93.6598 50.5964H93.7447C93.9712 49.7905 94.1978 49.0135 94.4243 48.2652C94.6792 47.5169 94.9623 46.6822 95.2738 45.7612L100.753 28.4065H105.85L108.186 55.6042H104.279L103.174 41.1851C103.061 39.7749 102.976 38.379 102.919 36.9975C102.863 35.5873 102.806 34.1626 102.75 32.7236H102.665C102.268 34.1338 101.858 35.5441 101.433 36.9544C101.036 38.3646 100.612 39.7749 100.159 41.1851L95.4437 55.6042H91.8758L87.161 41.1419C86.6796 39.6741 86.2407 38.2783 85.8442 36.9544C85.4478 35.6017 85.0513 34.1914 84.6549 32.7236H84.57C84.5133 34.1338 84.4284 35.5441 84.3151 36.9544C84.2301 38.3646 84.131 39.7749 84.0178 41.1851L82.9984 55.6042H79.1755L81.4267 28.4065Z" fill="white"/>
<path d="M10.4273 51.5832V46.3287C10.4273 45.6167 10.1668 45.0069 9.64588 44.4995C9.13307 43.9839 8.52257 43.726 7.81439 43.726C7.09807 43.726 6.4835 43.9839 5.97068 44.4995C5.45786 45.0069 5.20145 45.6167 5.20145 46.3287V51.5832C5.20145 52.287 5.45379 52.8968 5.95847 53.4124C6.47129 53.928 7.08993 54.1858 7.81439 54.1858C8.53885 54.1858 9.15342 53.928 9.6581 53.4124C10.1709 52.8968 10.4273 52.287 10.4273 51.5832ZM5.20145 43.726C5.30727 42.8421 5.57589 42.1833 6.00731 41.7495C6.44687 41.3157 7.04923 41.0988 7.81439 41.0988H10.4273C11.8518 41.0988 13.0728 41.6144 14.0903 42.6457C15.116 43.6688 15.6288 44.8964 15.6288 46.3287V51.5832C15.6288 52.9991 15.116 54.2268 14.0903 55.2662C13.0728 56.2974 11.8518 56.8131 10.4273 56.8131H5.20145C3.77695 56.8131 2.55189 56.2974 1.52625 55.2662C0.508749 54.2268 0 52.9991 0 51.5832V42.4002C0 39.8957 0.895399 37.7432 2.6862 35.9426C4.48513 34.142 6.62595 33.2417 9.10865 33.2417H13.0158V35.8689H10.4273C8.98655 35.8689 7.75334 36.3845 6.7277 37.4158C5.7102 38.447 5.20145 39.6747 5.20145 41.0988V43.726Z" fill="#039D55"/>
<path d="M31.2453 46.3287V43.726C31.2453 43.0058 30.9849 42.3879 30.4639 41.8723C29.9511 41.3566 29.3406 41.0988 28.6324 41.0988H26.0195C24.481 41.0988 23.6182 41.9746 23.431 43.726H20.818C21.2169 40.2231 22.9507 38.4716 26.0195 38.4716H31.2453C32.6698 38.4716 33.8908 38.9913 34.9083 40.0307C35.934 41.062 36.4468 42.2938 36.4468 43.726V56.8131H31.2453V54.1858C31.0418 55.9373 30.1709 56.8131 28.6324 56.8131H26.0195C24.595 56.8131 23.3699 56.3015 22.3443 55.2785C21.3268 54.2472 20.818 53.0155 20.818 51.5832V51.5586C20.818 50.1263 21.3308 48.8987 22.3565 47.8756C23.3821 46.8443 24.6031 46.3287 26.0195 46.3287H31.2453ZM31.2453 48.9559H28.6324C27.9161 48.9559 27.3015 49.2138 26.7887 49.7294C26.2759 50.2368 26.0195 50.8466 26.0195 51.5586V51.5832C26.0195 52.287 26.2718 52.8968 26.7765 53.4124C27.2893 53.928 27.9079 54.1858 28.6324 54.1858C29.3569 54.1858 29.9714 53.928 30.4761 53.4124C30.9889 52.8968 31.2453 52.287 31.2453 51.5832V48.9559Z" fill="#039D55"/>
<path d="M57.2648 56.8131H52.0634V43.726C52.0634 43.0058 51.8029 42.3879 51.2819 41.8723C50.7691 41.3566 50.1586 41.0988 49.4504 41.0988C48.7341 41.0988 48.1195 41.3566 47.6067 41.8723C47.0939 42.3879 46.8375 43.0058 46.8375 43.726V56.8131H41.636V38.4716H46.8375V41.0988C46.9433 40.2149 47.2119 39.556 47.6433 39.1223C48.0829 38.6885 48.6853 38.4716 49.4504 38.4716H52.0634C53.8297 38.4716 55.1321 39.0895 55.9706 40.3254C56.3776 39.7034 56.9067 39.2409 57.5578 38.9381C58.209 38.6271 58.9824 38.4716 59.8778 38.4716H62.4663C63.8908 38.4716 65.1158 38.9872 66.1415 40.0185C67.1752 41.0415 67.6921 42.2774 67.6921 43.726V56.8131H62.4663V43.726C62.4663 43.014 62.2099 42.4002 61.697 41.8845C61.1842 41.3607 60.5778 41.0988 59.8778 41.0988C59.1614 41.0988 58.5469 41.3566 58.034 41.8723C57.5212 42.3879 57.2648 43.0058 57.2648 43.726V56.8131Z" fill="#039D55"/>
<path d="M87.3352 16.3186C88.1697 16.3186 88.8462 15.6421 88.8462 14.8076C88.8462 13.9731 88.1697 13.2966 87.3352 13.2966C86.5007 13.2966 85.8242 13.9731 85.8242 14.8076C85.8242 15.6421 86.5007 16.3186 87.3352 16.3186Z" fill="white"/>
<path fill-rule="evenodd" clip-rule="evenodd" d="M87.3352 13.4637C86.5918 13.4637 85.9901 14.066 85.9901 14.8076C85.9901 15.5493 86.5918 16.1515 87.3352 16.1515C88.0786 16.1515 88.6803 15.5493 88.6803 14.8076C88.6803 14.066 88.0786 13.4637 87.3352 13.4637ZM85.8242 14.8076C85.8242 13.9725 86.5013 13.2966 87.3352 13.2966C88.1691 13.2966 88.8462 13.9725 88.8462 14.8076C88.8462 15.6427 88.1691 16.3186 87.3352 16.3186C86.5013 16.3186 85.8242 15.6427 85.8242 14.8076Z" fill="#2F3C2C"/>
<path d="M98.8186 16.3186C99.6531 16.3186 100.33 15.6421 100.33 14.8076C100.33 13.9731 99.6531 13.2966 98.8186 13.2966C97.9841 13.2966 97.3076 13.9731 97.3076 14.8076C97.3076 15.6421 97.9841 16.3186 98.8186 16.3186Z" fill="white"/>
<path fill-rule="evenodd" clip-rule="evenodd" d="M98.8186 13.4637C98.0752 13.4637 97.4735 14.066 97.4735 14.8076C97.4735 15.5493 98.0752 16.1515 98.8186 16.1515C99.562 16.1515 100.164 15.5493 100.164 14.8076C100.164 14.066 99.562 13.4637 98.8186 13.4637ZM97.3076 14.8076C97.3076 13.9725 97.9847 13.2966 98.8186 13.2966C99.6525 13.2966 100.33 13.9725 100.33 14.8076C100.33 15.6427 99.6525 16.3186 98.8186 16.3186C97.9847 16.3186 97.3076 15.6427 97.3076 14.8076Z" fill="#2F3C2C"/>
<path fill-rule="evenodd" clip-rule="evenodd" d="M95.8545 2.39564C94.9863 1.37441 93.8293 0.717662 92.2503 0.731771C90.6705 0.745886 89.5437 1.41663 88.7207 2.43973C87.8863 3.47702 87.3671 4.87661 87.0526 6.31087C86.7392 7.73992 86.6355 9.17242 86.6108 10.2513C86.5985 10.7897 86.6059 11.238 86.6164 11.5508C86.6216 11.7072 86.6276 11.8297 86.6322 11.9125C86.6345 11.9539 86.6365 11.9854 86.6379 12.0063C86.6386 12.0168 86.6391 12.0246 86.6395 12.0296L86.6399 12.0351L86.6399 12.0363L86.64 12.0365C86.64 12.0365 86.64 12.0365 86.2508 12.0623C85.8617 12.0882 85.8617 12.088 85.8617 12.0879L85.8615 12.0853L85.861 12.0781C85.8605 12.072 85.8599 12.0631 85.8592 12.0516C85.8576 12.0284 85.8555 11.9946 85.8531 11.9508C85.8482 11.8632 85.842 11.7356 85.8365 11.5737C85.8257 11.25 85.8182 10.7888 85.8308 10.2356C85.8561 9.13094 85.9622 7.65088 86.2884 6.16354C86.6134 4.6814 87.1634 3.16075 88.0978 1.99922C89.0435 0.82351 90.385 0.0168579 92.2428 0.000256955C94.1015 -0.0163508 95.4732 0.77358 96.4646 1.93965C97.445 3.09279 98.0574 4.61536 98.4438 6.10468C98.8315 7.599 98.9991 9.09016 99.0703 10.2043C99.106 10.7622 99.1176 11.2277 99.1202 11.5544C99.1216 11.7178 99.1207 11.8467 99.1194 11.9351C99.1188 11.9794 99.1181 12.0135 99.1175 12.0369C99.1172 12.0486 99.117 12.0575 99.1168 12.0637L99.1166 12.0709L99.1165 12.0729L99.1165 12.0735C99.1165 12.0737 99.1165 12.0738 98.7266 12.0623C98.3367 12.0508 98.3367 12.0509 98.3367 12.0509L98.3367 12.0494L98.3369 12.0439C98.337 12.0388 98.3372 12.0309 98.3375 12.0203C98.338 11.9992 98.3387 11.9673 98.3393 11.9254C98.3404 11.8417 98.3413 11.718 98.34 11.56C98.3375 11.244 98.3262 10.7914 98.2915 10.248C98.2219 9.15945 98.0586 7.71501 97.6857 6.27758C97.3115 4.83515 96.7337 3.42979 95.8545 2.39564Z" fill="white"/>
<path fill-rule="evenodd" clip-rule="evenodd" d="M96.3869 2.1333C95.545 1.05845 94.411 0.357053 92.8667 0.372029C91.3221 0.387008 90.2165 1.10333 89.4169 2.18205C88.612 3.26798 88.1186 4.72137 87.8216 6.1914C87.5251 7.65878 87.4274 9.12694 87.4041 10.2301C87.3925 10.7812 87.3995 11.2401 87.4094 11.5608C87.4143 11.7212 87.4199 11.847 87.4243 11.9324C87.4265 11.9751 87.4284 12.0077 87.4297 12.0295C87.4304 12.0404 87.4309 12.0486 87.4313 12.054L87.4317 12.0601L87.4318 12.0615L87.4318 12.0618C87.4318 12.0618 87.4318 12.0618 87.2496 12.0749C87.0674 12.0881 87.0674 12.088 87.0673 12.0879L87.0672 12.0855L87.0667 12.0787C87.0663 12.0727 87.0658 12.064 87.0651 12.0525C87.0637 12.0296 87.0617 11.9958 87.0595 11.9518C87.055 11.864 87.0492 11.7356 87.0442 11.5725C87.0341 11.2462 87.0271 10.7807 87.0388 10.2221C87.0624 9.10586 87.1612 7.61353 87.4637 6.11652C87.7656 4.62216 88.2736 3.10724 89.1252 1.95817C89.9823 0.801887 91.1883 0.0164952 92.8633 0.000252511C94.5385 -0.0159936 95.773 0.753094 96.6726 1.90155C97.5671 3.04343 98.1326 4.56127 98.4917 6.06319C98.8513 7.56765 99.0073 9.07148 99.0736 10.1974C99.1067 10.7609 99.1175 11.2307 99.12 11.5601C99.1212 11.7248 99.1204 11.8545 99.1192 11.9432C99.1187 11.9876 99.118 12.0217 99.1175 12.0449C99.1172 12.0565 99.117 12.0653 99.1168 12.0713L99.1166 12.0782L99.1166 12.0806C99.1166 12.0807 99.1166 12.0808 98.934 12.0749C98.7514 12.0691 98.7514 12.0691 98.7514 12.0691L98.7514 12.0687L98.7514 12.0673L98.7516 12.0612C98.7518 12.0558 98.752 12.0475 98.7522 12.0365C98.7527 12.0144 98.7533 11.9814 98.7539 11.9383C98.755 11.852 98.7559 11.7249 98.7546 11.563C98.7522 11.239 98.7416 10.7757 98.7088 10.2197C98.6433 9.10669 98.4894 7.62661 98.1367 6.15106C97.7833 4.67298 97.234 3.21471 96.3869 2.1333Z" fill="#2F3C2C"/>
</svg>
