<svg width="102" height="103" viewBox="0 0 102 103" fill="none" xmlns="http://www.w3.org/2000/svg">
<rect y="0.98877" width="102" height="101.537" rx="10" fill="url(#paint0_linear_302_435)"/>
<path d="M51.5361 71.565V71.0906C51.5361 64.9171 51.5361 58.7437 51.5361 52.5702C51.5361 52.2831 51.58 52.0958 51.881 51.946C58.1202 48.8375 64.3469 45.7102 70.5799 42.5891C70.6927 42.5329 70.8119 42.483 70.9937 42.4019V42.9262C70.9937 49.0684 70.9937 55.2169 71 61.3591C71 61.7212 70.8871 61.9022 70.5673 62.0582C64.3845 65.1418 58.208 68.2379 52.0315 71.334C51.8873 71.4027 51.7431 71.4713 51.5361 71.565V71.565Z" fill="white"/>
<path d="M31.0314 42.3956C31.3261 42.5392 31.5706 42.664 31.8214 42.7889C33.7967 43.7751 35.7656 44.7739 37.7471 45.7414C38.0607 45.8974 38.1547 46.0785 38.1485 46.4155C38.1296 48.5004 38.1422 50.5915 38.1422 52.6764V53.2194C38.9762 53.2194 39.7725 53.2319 40.5689 53.2132C40.8762 53.207 41.0956 53.3068 41.3088 53.5253C42.1303 54.3555 42.9643 55.167 43.8421 56.0346V48.85C43.9989 48.9124 44.1055 48.9498 44.2058 48.9998C46.1811 49.986 48.1563 50.9723 50.1315 51.9585C50.3447 52.0647 50.4701 52.1708 50.4701 52.4517C50.4576 58.7562 50.4639 65.0607 50.4639 71.3652C50.4639 71.4089 50.4576 71.4526 50.4451 71.54C50.3134 71.4838 50.1942 71.4464 50.0876 71.3902C43.8296 68.2567 37.5778 65.1169 31.3198 61.9896C31.1003 61.8835 31 61.7774 31 61.5277C31.0063 55.2232 31.0063 48.9186 31.0063 42.6141C31.0063 42.5704 31.0125 42.5267 31.0314 42.3956Z" fill="white"/>
<path d="M44.4441 47.9074C46.8771 46.6153 49.2474 45.3544 51.6114 44.0935C55.3674 42.096 59.1298 40.0985 62.8859 38.0886C63.1492 37.945 63.3499 37.945 63.6132 38.0823C65.7452 39.1622 67.8772 40.2234 70.0155 41.297C70.1221 41.347 70.2162 41.4094 70.3666 41.4968C70.1723 41.6029 70.0092 41.6965 69.8462 41.7777C63.6948 44.8613 57.5433 47.9386 51.3982 51.0347C51.1034 51.1845 50.8777 51.1783 50.583 51.0285C48.6642 50.0484 46.7391 49.0934 44.8203 48.1259C44.7137 48.0759 44.6134 48.0135 44.4441 47.9199V47.9074Z" fill="white"/>
<path d="M31.5959 41.4906C32.825 40.8726 33.985 40.2859 35.1514 39.6991C40.2932 37.1211 45.4414 34.5494 50.577 31.9589C50.8905 31.8028 51.1288 31.8153 51.436 31.9714C53.3109 32.9264 55.1984 33.8627 57.0796 34.8053C57.2112 34.8677 57.3367 34.9426 57.5185 35.0487C57.2238 35.211 56.973 35.3608 56.7159 35.4982C50.8403 38.6255 44.9648 41.759 39.083 44.8738C38.9262 44.9612 38.6629 45.0174 38.5249 44.9487C36.2362 43.8251 33.96 42.6766 31.5959 41.4906V41.4906Z" fill="white"/>
<defs>
<linearGradient id="paint0_linear_302_435" x1="51" y1="0.98877" x2="51" y2="102.526" gradientUnits="userSpaceOnUse">
<stop stop-color="#17A1FA"/>
<stop offset="1" stop-color="#61B2FA"/>
</linearGradient>
</defs>
</svg>
