<svg width="102" height="102" viewBox="0 0 102 102" fill="none" xmlns="http://www.w3.org/2000/svg">
<rect y="0.0895996" width="102" height="101.537" rx="10" fill="url(#paint0_linear_302_436)"/>
<path d="M51.056 22.9867C61.0874 22.8731 67.7808 29.7722 70.1174 37.5633C71.6985 42.8273 71.0661 47.9164 68.9316 52.8919C67.0957 57.159 64.724 61.1289 62.0975 64.9326C59.19 69.1298 56.098 73.1871 53.0675 77.2969C52.7776 77.6904 52.4087 78.0489 52.031 78.3724C51.2756 78.9933 50.7134 78.9933 49.958 78.3724C49.6417 78.1101 49.3431 77.8128 49.0883 77.4893C43.9409 71.071 39.1535 64.3992 35.1656 57.194C33.4703 54.1248 32.0121 50.9419 31.3796 47.4617C30.2289 41.1746 31.7134 35.4909 35.5696 30.4455C38.4596 26.6506 42.2895 24.2459 47.0329 23.4065C48.3593 23.1704 49.7208 23.1266 51.0648 22.9955L51.056 22.9867ZM33.9973 42.9934C33.9973 52.2798 41.6658 59.9134 50.9681 59.9047C60.3759 59.9047 68.018 52.2885 68.0092 42.9322C68.0004 33.6546 60.3319 26.0472 51.0033 26.0472C41.6394 26.0472 33.9885 33.6634 33.9973 42.9847V42.9934Z" fill="white"/>
<path d="M48.57 42.0664C48.1132 43.2906 47.2699 43.9464 46.2071 43.9552C45.1266 43.9639 44.2658 43.2994 43.8002 42.0315C43.4401 42.9758 42.8867 43.6491 41.8941 43.8765C40.4974 44.1913 39.0568 43.142 38.9954 41.7167C38.969 41.1133 38.969 40.51 38.9954 39.9154C39.0041 39.7055 39.0832 39.4694 39.1974 39.2858C39.8474 38.2277 40.4974 37.1609 41.1914 36.1291C41.3231 35.9368 41.6394 35.7706 41.8765 35.7706C47.9551 35.7531 54.0337 35.7619 60.1122 35.7444C60.4812 35.7444 60.6744 35.8755 60.8501 36.1641C61.465 37.1784 62.115 38.1578 62.7123 39.1809C62.8705 39.4519 62.9407 39.7842 62.9759 40.099C63.0198 40.5275 62.9846 40.9647 62.9846 41.4019C62.9846 42.7135 62.2468 43.6316 60.9994 43.8852C59.9014 44.1126 58.8298 43.4917 58.3291 42.3288C58.2852 42.2326 58.2412 42.1451 58.1798 42.0052C57.802 43.1769 57.0378 43.894 55.8256 43.9115C54.6134 43.9289 53.8229 43.2469 53.4276 42.0927C52.2242 44.7946 49.3254 44.2525 48.5612 42.0402L48.57 42.0664Z" fill="white"/>
<path d="M53.3924 43.9727C55.1492 45.2406 56.2823 45.2406 58.0743 44.0688L60.5865 45.0919V52.4982H41.4109V45.0832L43.9143 44.0688C45.6975 45.2406 46.8307 45.2406 48.5787 43.9901C50.5639 45.2231 51.6882 45.2231 53.4011 43.9727H53.3924Z" fill="white"/>
<path d="M41.4199 34.7826C41.3408 33.7945 41.6746 33.4098 42.5882 33.4098C48.1924 33.4098 53.7879 33.4098 59.3921 33.4098C60.3144 33.4098 60.6394 33.7858 60.578 34.7826H41.4199Z" fill="white"/>
<defs>
<linearGradient id="paint0_linear_302_436" x1="51" y1="0.0895996" x2="51" y2="101.626" gradientUnits="userSpaceOnUse">
<stop stop-color="#F92E0F"/>
<stop offset="1" stop-color="#ECAF11" stop-opacity="0.9"/>
</linearGradient>
</defs>
</svg>
