<svg width="102" height="96" viewBox="0 0 102 96" fill="none" xmlns="http://www.w3.org/2000/svg">
<rect width="102" height="102" rx="10" fill="url(#paint0_linear_302_434)"/>
<path d="M70.9949 66.9512C70.7839 67.4811 70.5833 68.011 70.11 68.3866C69.6264 68.7724 69.081 68.9834 68.4585 68.9834C67.2084 68.9834 65.9582 68.9834 64.708 68.9834C54.3724 68.9834 44.0367 68.9834 33.701 68.9834C32.3222 68.9834 31.3601 68.2734 31.0617 67.0181C31.0154 66.8329 31 66.6323 31 66.4368C31 62.3879 31 58.339 31 54.2901C31 54.2027 31 54.1152 31 53.9814H31.4116C37.8527 53.9814 44.299 53.9814 50.7402 53.9814C50.946 53.9814 51.1209 53.9814 51.2701 54.1975C53.0193 56.7853 55.4013 58.6786 58.0199 60.3043C58.5601 60.6387 59.1055 60.9834 59.692 61.22C60.7672 61.6573 61.8476 61.5441 62.8457 60.9731C65.2277 59.6097 67.4656 58.0509 69.3125 55.9982C69.8064 55.4477 70.2283 54.8355 70.6913 54.2541C70.7736 54.1512 70.892 54.0689 70.9897 53.9814V66.9461L70.9949 66.9512ZM39.746 61.4876C40.528 61.4876 41.3048 61.4876 42.0868 61.4876C42.9203 61.4824 43.4913 60.9731 43.5016 60.2477C43.5068 59.5223 42.9305 58.9924 42.1074 58.9924C40.5485 58.9872 38.9846 58.9924 37.4257 58.9924C36.5923 58.9924 36.0212 59.5017 36.0109 60.2322C36.0058 60.9576 36.582 61.4824 37.4051 61.4927C38.1871 61.4978 38.964 61.4927 39.746 61.4927V61.4876Z" fill="white"/>
<path d="M70.995 45.4721C70.9178 46.074 70.8458 46.6759 70.7583 47.2779C70.3776 49.948 69.3127 52.3042 67.5017 54.3158C65.8348 56.1628 63.813 57.5467 61.6779 58.7917C61.2509 59.0386 60.8085 59.0695 60.3763 58.8174C57.8966 57.382 55.566 55.7615 53.7911 53.4566C52.3815 51.6251 51.5686 49.5415 51.2342 47.2624C50.8278 44.4894 51.0593 41.701 51.013 38.9229C51.0027 38.3158 51.4194 37.9763 51.9493 37.7499C54.1358 36.8187 56.3172 35.8772 58.5037 34.9409C59.1107 34.6785 59.723 34.4264 60.33 34.1538C60.7725 33.9531 61.1943 33.948 61.6471 34.1435C64.4612 35.3576 67.2754 36.5615 70.0947 37.7653C70.5268 37.9505 70.8149 38.2541 71.0001 38.6759V45.4721H70.995ZM59.8413 46.8817C59.3011 46.0792 58.8072 45.3177 58.2876 44.5718C57.8554 43.9544 57.1352 43.8206 56.5435 44.2219C55.9776 44.6078 55.8284 45.328 56.2297 45.9402C57.0374 47.1801 57.8554 48.4148 58.694 49.6341C59.2188 50.4007 60.1602 50.4419 60.7416 49.7216C62.3982 47.6689 64.0496 45.611 65.6754 43.5325C65.876 43.2753 65.9635 42.8586 65.9429 42.5242C65.9069 42.0046 65.5519 41.6702 65.0271 41.5415C64.4818 41.4129 64.0599 41.6084 63.7255 42.0251C62.4394 43.6251 61.1583 45.2303 59.8413 46.8766V46.8817Z" fill="white"/>
<path d="M48.5023 41.4901C48.4817 44.0264 48.4663 46.5113 49.0373 48.9705H31.0309C31.0206 48.8573 31.0103 48.7441 31.0103 48.6361C31.0103 47.103 31.0052 45.5647 31.0103 44.0316C31.0206 42.5756 32.0959 41.4953 33.557 41.4953C38.4341 41.4901 43.3113 41.4953 48.1936 41.4953H48.5074L48.5023 41.4901Z" fill="white"/>
<defs>
<linearGradient id="paint0_linear_302_434" x1="51" y1="0" x2="51" y2="102" gradientUnits="userSpaceOnUse">
<stop stop-color="#EF7822"/>
<stop offset="1" stop-color="#FFCE31"/>
</linearGradient>
</defs>
</svg>
