<svg width="102" height="102" viewBox="0 0 102 102" fill="none" xmlns="http://www.w3.org/2000/svg">
<rect width="102" height="102" rx="10" fill="url(#paint0_linear_302_433)"/>
<path d="M56.3187 71.0375H33.9673C33.7971 70.9826 33.6269 70.9277 33.4512 70.8783C32.0346 70.4445 31.0024 69.0829 31.0024 67.606C30.9969 62.1211 31.0024 56.6416 31.0024 51.1567C31.0024 50.4265 31.4911 49.9434 32.2323 49.9434C40.8412 49.9434 49.4447 49.9434 58.0536 49.9434C58.7949 49.9434 59.2835 50.421 59.2835 51.1567C59.2835 56.6416 59.2835 62.1211 59.2835 67.606C59.2835 69.0884 58.2513 70.4445 56.8348 70.8837C56.6646 70.9387 56.4889 70.9881 56.3187 71.043V71.0375ZM52.0966 56.5813C52.0966 56.3232 52.1075 56.0597 52.0966 55.8016C52.0636 55.1373 51.542 54.6267 50.9161 54.6322C50.2957 54.6377 49.7796 55.1537 49.7522 55.8181C49.7192 56.5044 49.7686 57.2072 49.6533 57.877C49.3074 59.9359 47.3858 61.5995 45.3598 61.6599C43.0374 61.7258 41.0499 60.3312 40.5557 58.1845C40.3855 57.4378 40.424 56.6362 40.38 55.862C40.3416 55.1702 39.8585 54.6431 39.2161 54.6322C38.5627 54.6212 38.0302 55.1592 38.0302 55.873C38.0302 56.5099 38.0302 57.1523 38.096 57.7837C38.5572 62.4011 43.581 65.333 47.8195 63.4223C50.7349 62.1101 52.0691 59.7382 52.0911 56.5813H52.0966Z" fill="white"/>
<path d="M60.4585 71.0375C60.9252 70.2853 61.3699 69.5221 61.5017 68.6272C61.5676 68.1935 61.628 67.7487 61.628 67.3095C61.639 61.9838 61.6335 56.6581 61.628 51.3324C61.628 49.0923 60.1236 47.5935 57.8725 47.5935C52.9367 47.5935 48.0008 47.5935 43.0649 47.5935H42.5763C42.5708 47.4397 42.5598 47.3135 42.5598 47.1872C42.5598 45.4138 42.5598 43.6459 42.5598 41.8725C42.5598 41.0105 43.0155 40.5603 43.8885 40.5603C45.6839 40.5603 47.4847 40.5603 49.2801 40.5603H49.7467C49.7467 39.7147 49.7467 38.8967 49.7467 38.0841C49.7413 36.3601 50.2738 34.8228 51.4048 33.5326C53.3649 31.3035 55.8521 30.4964 58.6961 31.3089C61.5511 32.127 63.2641 34.12 63.7198 37.0739C63.8626 37.9798 63.7857 38.9186 63.8077 39.841C63.8077 40.0606 63.8077 40.2803 63.8077 40.5658H64.2304C65.9874 40.5658 67.7443 40.5877 69.5067 40.5548C70.215 40.5438 70.7091 40.7744 71.0001 41.4223V68.0672C70.9726 68.1495 70.9397 68.2319 70.9177 68.3197C70.6103 69.5002 69.891 70.3347 68.7655 70.8014C68.5294 70.9002 68.2768 70.9606 68.0353 71.043H60.453L60.4585 71.0375ZM61.4138 40.5438C61.4138 39.4841 61.5017 38.4355 61.3974 37.4143C61.1613 35.2016 59.2726 33.5106 57.016 33.3788C54.8528 33.2525 52.7225 34.7569 52.2888 36.8927C52.0472 38.0731 52.1076 39.3085 52.0308 40.5438H61.4193H61.4138Z" fill="white"/>
<defs>
<linearGradient id="paint0_linear_302_433" x1="51" y1="0" x2="51" y2="102" gradientUnits="userSpaceOnUse">
<stop stop-color="#6200EE"/>
<stop offset="1" stop-color="#0079E3"/>
</linearGradient>
</defs>
</svg>
