<svg width="102" height="102" viewBox="0 0 102 102" fill="none" xmlns="http://www.w3.org/2000/svg">
<rect width="102" height="102" rx="10" fill="url(#paint0_linear_302_432)"/>
<path d="M70.9851 43.9852C70.9851 46.4295 71.007 48.8737 70.9851 51.3252C70.9046 58.2253 68.0219 63.7916 62.6588 68.1465C59.359 70.8287 55.6203 72.7322 51.5084 73.9147C51.223 73.994 50.8718 74.0372 50.6011 73.9579C44.6966 72.1842 39.5458 69.2425 35.6314 64.4477C32.9389 61.1527 31.4463 57.3601 31.1097 53.1421C31.0366 52.2265 31.0146 51.2963 31.0146 50.3734C31.0073 45.4489 31.0146 40.5243 31 35.5998C31 35.1816 31.1317 35.023 31.5195 34.886C37.8337 32.6364 44.1479 30.3796 50.4474 28.1012C50.8572 27.957 51.1864 27.9714 51.5815 28.1156C57.8884 30.3868 64.1953 32.6436 70.5095 34.8932C70.8826 35.023 71.007 35.1888 70.9997 35.5782C70.9777 38.3829 70.9924 41.1877 70.9924 43.9924L70.9851 43.9852ZM39.9848 52.1039C42.5748 54.6563 45.1649 57.2087 47.733 59.7395C52.4815 55.0601 57.2884 50.323 62.0588 45.6219L59.7102 43.3075C55.7081 47.2514 51.6766 51.2242 47.6159 55.2259L42.2163 49.8976L39.9848 52.1039Z" fill="white"/>
<defs>
<linearGradient id="paint0_linear_302_432" x1="51" y1="0" x2="51" y2="102" gradientUnits="userSpaceOnUse">
<stop stop-color="#03A057"/>
<stop offset="1" stop-color="#01DB75"/>
</linearGradient>
</defs>
</svg>
