<svg width="20" height="20" viewBox="0 0 20 20" fill="none" xmlns="http://www.w3.org/2000/svg">
<path d="M6.6665 4.99984V3.33317C6.6665 2.87484 6.82984 2.48234 7.1565 2.15567C7.48261 1.82956 7.87484 1.6665 8.33317 1.6665H11.6665C12.1248 1.6665 12.5173 1.82956 12.844 2.15567C13.1701 2.48234 13.3332 2.87484 13.3332 3.33317V4.99984H16.6665C17.1248 4.99984 17.5173 5.16317 17.844 5.48984C18.1701 5.81595 18.3332 6.20817 18.3332 6.6665V15.8332C18.3332 16.2915 18.1701 16.684 17.844 17.0107C17.5173 17.3368 17.1248 17.4998 16.6665 17.4998H3.33317C2.87484 17.4998 2.48262 17.3368 2.1565 17.0107C1.82984 16.684 1.6665 16.2915 1.6665 15.8332V6.6665C1.6665 6.20817 1.82984 5.81595 2.1565 5.48984C2.48262 5.16317 2.87484 4.99984 3.33317 4.99984H6.6665ZM8.33317 4.99984H11.6665V3.33317H8.33317V4.99984ZM16.6665 12.4998H12.4998V13.3332C12.4998 13.5693 12.4201 13.7671 12.2607 13.9265C12.1007 14.0865 11.9026 14.1665 11.6665 14.1665H8.33317C8.09706 14.1665 7.89928 14.0865 7.73984 13.9265C7.57984 13.7671 7.49984 13.5693 7.49984 13.3332V12.4998H3.33317V15.8332H16.6665V12.4998ZM9.1665 12.4998H10.8332V10.8332H9.1665V12.4998ZM3.33317 10.8332H7.49984V9.99984C7.49984 9.76373 7.57984 9.56567 7.73984 9.40567C7.89928 9.24623 8.09706 9.1665 8.33317 9.1665H11.6665C11.9026 9.1665 12.1007 9.24623 12.2607 9.40567C12.4201 9.56567 12.4998 9.76373 12.4998 9.99984V10.8332H16.6665V6.6665H3.33317V10.8332Z" fill="#9EACAD"/>
</svg>
