<svg width="16" height="17" viewBox="0 0 16 17" fill="none" xmlns="http://www.w3.org/2000/svg">
<g clip-path="url(#clip0_340_593)">
<path d="M2 10.5H5C5.26522 10.5 5.51957 10.6054 5.70711 10.7929C5.89464 10.9804 6 11.2348 6 11.5V14.5C6 14.7652 5.89464 15.0196 5.70711 15.2071C5.51957 15.3946 5.26522 15.5 5 15.5H2C1.73478 15.5 1.48043 15.3946 1.29289 15.2071C1.10536 15.0196 1 14.7652 1 14.5V11.5C1 11.2348 1.10536 10.9804 1.29289 10.7929C1.48043 10.6054 1.73478 10.5 2 10.5ZM11 1.5H14C14.2652 1.5 14.5196 1.60536 14.7071 1.79289C14.8946 1.98043 15 2.23478 15 2.5V5.5C15 5.76522 14.8946 6.01957 14.7071 6.20711C14.5196 6.39464 14.2652 6.5 14 6.5H11C10.7348 6.5 10.4804 6.39464 10.2929 6.20711C10.1054 6.01957 10 5.76522 10 5.5V2.5C10 2.23478 10.1054 1.98043 10.2929 1.79289C10.4804 1.60536 10.7348 1.5 11 1.5ZM11 10.5C10.7348 10.5 10.4804 10.6054 10.2929 10.7929C10.1054 10.9804 10 11.2348 10 11.5V14.5C10 14.7652 10.1054 15.0196 10.2929 15.2071C10.4804 15.3946 10.7348 15.5 11 15.5H14C14.2652 15.5 14.5196 15.3946 14.7071 15.2071C14.8946 15.0196 15 14.7652 15 14.5V11.5C15 11.2348 14.8946 10.9804 14.7071 10.7929C14.5196 10.6054 14.2652 10.5 14 10.5H11ZM11 0.5C10.4696 0.5 9.96086 0.710714 9.58579 1.08579C9.21071 1.46086 9 1.96957 9 2.5V5.5C9 6.03043 9.21071 6.53914 9.58579 6.91421C9.96086 7.28929 10.4696 7.5 11 7.5H14C14.5304 7.5 15.0391 7.28929 15.4142 6.91421C15.7893 6.53914 16 6.03043 16 5.5V2.5C16 1.96957 15.7893 1.46086 15.4142 1.08579C15.0391 0.710714 14.5304 0.5 14 0.5H11ZM2 9.5C1.46957 9.5 0.960859 9.71071 0.585786 10.0858C0.210714 10.4609 0 10.9696 0 11.5L0 14.5C0 15.0304 0.210714 15.5391 0.585786 15.9142C0.960859 16.2893 1.46957 16.5 2 16.5H5C5.53043 16.5 6.03914 16.2893 6.41421 15.9142C6.78929 15.5391 7 15.0304 7 14.5V11.5C7 10.9696 6.78929 10.4609 6.41421 10.0858C6.03914 9.71071 5.53043 9.5 5 9.5H2ZM9 11.5C9 10.9696 9.21071 10.4609 9.58579 10.0858C9.96086 9.71071 10.4696 9.5 11 9.5H14C14.5304 9.5 15.0391 9.71071 15.4142 10.0858C15.7893 10.4609 16 10.9696 16 11.5V14.5C16 15.0304 15.7893 15.5391 15.4142 15.9142C15.0391 16.2893 14.5304 16.5 14 16.5H11C10.4696 16.5 9.96086 16.2893 9.58579 15.9142C9.21071 15.5391 9 15.0304 9 14.5V11.5ZM0 2.5C0 1.96957 0.210714 1.46086 0.585786 1.08579C0.960859 0.710714 1.46957 0.5 2 0.5L5 0.5C5.53043 0.5 6.03914 0.710714 6.41421 1.08579C6.78929 1.46086 7 1.96957 7 2.5V5.5C7 6.03043 6.78929 6.53914 6.41421 6.91421C6.03914 7.28929 5.53043 7.5 5 7.5H2C1.46957 7.5 0.960859 7.28929 0.585786 6.91421C0.210714 6.53914 0 6.03043 0 5.5V2.5ZM5.354 3.354C5.40049 3.30751 5.43736 3.25232 5.46252 3.19158C5.48768 3.13084 5.50063 3.06574 5.50063 3C5.50063 2.93426 5.48768 2.86916 5.46252 2.80842C5.43736 2.74768 5.40049 2.69249 5.354 2.646C5.30751 2.59951 5.25232 2.56264 5.19158 2.53748C5.13084 2.51232 5.06574 2.49937 5 2.49937C4.93426 2.49937 4.86916 2.51232 4.80842 2.53748C4.74768 2.56264 4.69249 2.59951 4.646 2.646L3 4.293L2.354 3.646C2.30751 3.59951 2.25232 3.56264 2.19158 3.53748C2.13084 3.51232 2.06574 3.49937 2 3.49937C1.93426 3.49937 1.86916 3.51232 1.80842 3.53748C1.74768 3.56264 1.69249 3.59951 1.646 3.646C1.59951 3.69249 1.56264 3.74768 1.53748 3.80842C1.51232 3.86916 1.49937 3.93426 1.49937 4C1.49937 4.06574 1.51232 4.13084 1.53748 4.19158C1.56264 4.25232 1.59951 4.30751 1.646 4.354L2.646 5.354C2.69245 5.40056 2.74762 5.43751 2.80837 5.46271C2.86911 5.48792 2.93423 5.50089 3 5.50089C3.06577 5.50089 3.13089 5.48792 3.19163 5.46271C3.25238 5.43751 3.30755 5.40056 3.354 5.354L5.354 3.354Z" fill="#9EACAD"/>
</g>
<defs>
<clipPath id="clip0_340_593">
<rect width="16" height="16" fill="white" transform="translate(0 0.5)"/>
</clipPath>
</defs>
</svg>
