<svg width="20" height="20" viewBox="0 0 20 20" fill="none" xmlns="http://www.w3.org/2000/svg">
<path d="M9.99984 13.3332C11.8408 13.3332 13.3332 11.8408 13.3332 9.99984C13.3332 8.15889 11.8408 6.6665 9.99984 6.6665C8.15889 6.6665 6.6665 8.15889 6.6665 9.99984C6.6665 11.8408 8.15889 13.3332 9.99984 13.3332Z" fill="#9EACAD"/>
<path d="M10.8332 3.39067V1.6665H9.1665V3.39067C7.70009 3.57791 6.33731 4.24665 5.29198 5.29198C4.24665 6.33731 3.57791 7.70009 3.39067 9.1665H1.6665V10.8332H3.39067C3.57763 12.2997 4.24628 13.6626 5.29167 14.708C6.33705 15.7534 7.69998 16.422 9.1665 16.609V18.3332H10.8332V16.609C12.2998 16.4222 13.6628 15.7536 14.7082 14.7082C15.7536 13.6628 16.4222 12.2998 16.609 10.8332H18.3332V9.1665H16.609C16.422 7.69998 15.7534 6.33705 14.708 5.29167C13.6626 4.24628 12.2997 3.57763 10.8332 3.39067V3.39067ZM9.99984 14.9998C7.24234 14.9998 4.99984 12.7573 4.99984 9.99984C4.99984 7.24234 7.24234 4.99984 9.99984 4.99984C12.7573 4.99984 14.9998 7.24234 14.9998 9.99984C14.9998 12.7573 12.7573 14.9998 9.99984 14.9998Z" fill="#9EACAD"/>
</svg>
