<svg width="20" height="20" viewBox="0 0 20 20" fill="none" xmlns="http://www.w3.org/2000/svg">
<path d="M4.25445 15.7454C3.11808 14.6091 2.34419 13.1613 2.03065 11.5852C1.71712 10.0091 1.87802 8.37534 2.49301 6.89065C3.108 5.40596 4.14946 4.13698 5.48567 3.2442C6.82189 2.35142 8.39284 1.87493 9.99986 1.875M15.7453 4.25458C16.8817 5.39089 17.6555 6.83865 17.9691 8.4148C18.2826 9.99094 18.1217 11.6247 17.5067 13.1093C16.8917 14.594 15.8503 15.863 14.5141 16.7558C13.1778 17.6486 11.6069 18.1251 9.99986 18.125" stroke="#9EACAD" stroke-linecap="round" stroke-linejoin="round"/>
<path d="M14.5016 5.05932C15.2292 5.05932 15.8191 4.46945 15.8191 3.74182C15.8191 3.01418 15.2292 2.42432 14.5016 2.42432C13.7739 2.42432 13.1841 3.01418 13.1841 3.74182C13.1841 4.46945 13.7739 5.05932 14.5016 5.05932Z" stroke="#9EACAD" stroke-linecap="round" stroke-linejoin="round"/>
<path d="M5.49816 17.5759C6.2258 17.5759 6.81566 16.9861 6.81566 16.2584C6.81566 15.5308 6.2258 14.9409 5.49816 14.9409C4.77053 14.9409 4.18066 15.5308 4.18066 16.2584C4.18066 16.9861 4.77053 17.5759 5.49816 17.5759Z" stroke="#9EACAD" stroke-linecap="round" stroke-linejoin="round"/>
<path d="M8.27979 8.45788L9.5977 11.0933L13.9894 10.6541L11.3544 5.3833L8.27979 8.45788Z" stroke="#9EACAD" stroke-linecap="round" stroke-linejoin="round"/>
<path d="M8.27981 8.45801L6.52315 9.33634C5.99523 9.60009 6.03981 10.5655 6.30356 11.0934C6.56731 11.6213 7.31273 12.2355 7.84107 11.9718L9.59773 11.0934M9.2094 11.3176L10.3073 13.5134L9.42898 13.9526L8.33107 11.7568" stroke="#9EACAD" stroke-linecap="round" stroke-linejoin="round"/>
</svg>
